<svg width="36" height="30" viewBox="0 0 36 30" fill="none" xmlns="http://www.w3.org/2000/svg">
<path fill-rule="evenodd" clip-rule="evenodd" d="M19.861 13.0804C19.373 13.1407 18.8895 13.4285 18.7399 13.9203C18.6423 14.3359 18.7549 14.8529 19.1595 15.0645C19.0851 15.0647 19.0096 15.0889 18.9346 15.1129C18.8072 15.1537 18.6811 15.1941 18.5638 15.1158C18.5182 15.0453 18.4937 14.9603 18.4694 14.8756C18.4266 14.7269 18.384 14.5788 18.228 14.5106C18.0432 14.3822 17.8398 14.4819 17.6639 14.5681C17.654 14.573 17.6442 14.5778 17.6345 14.5825C17.3461 14.5692 17.0244 14.606 16.8169 14.8297C16.4816 15.1878 16.6384 15.8626 17.1214 16.0043C17.122 16.0266 17.1221 16.0492 17.1221 16.0719C17.1224 16.1781 17.1227 16.2869 17.176 16.3819C17.2273 16.4662 17.3099 16.5193 17.3919 16.572H17.3919L17.392 16.572L17.392 16.5721L17.3921 16.5721H17.3921L17.3922 16.5722L17.3923 16.5723H17.3924L17.3924 16.5723L17.3925 16.5724L17.3925 16.5724L17.3926 16.5725C17.42 16.59 17.4473 16.6076 17.4733 16.6262C17.7599 16.5501 18.0538 16.5561 18.3474 16.5622H18.3475H18.3476H18.3477H18.3478H18.3479H18.348H18.3481H18.3482H18.3483H18.3483H18.3484H18.3485C18.4333 16.5639 18.5182 16.5657 18.6027 16.5654C18.6717 16.5284 18.7412 16.492 18.8107 16.4556L18.8163 16.4527C18.8591 16.4652 18.902 16.478 18.9451 16.491C18.9768 16.5006 19.0086 16.5101 19.0406 16.5196C19.0639 16.6512 19.1069 16.7784 19.1627 16.9005C18.7862 17.2402 18.7338 17.8571 19.0534 18.2514C19.436 18.7349 20.1688 18.8241 20.702 18.5576C20.952 18.4354 21.1272 18.2129 21.2515 17.9703C21.5421 18.0679 21.8822 18.0446 22.1271 17.8482C22.4072 17.9447 22.7038 17.9854 22.9916 17.8951C23.0429 18.1549 23.2426 18.4132 23.5293 18.4031C23.8261 18.3512 24.0503 18.1174 24.2204 17.8838C24.3864 17.8354 24.5386 17.7482 24.6643 17.6294C24.9845 17.8732 25.4145 17.843 25.7625 17.6791C25.825 17.7176 25.8874 17.7578 25.9499 17.7979C26.035 17.7824 26.1244 17.7732 26.2146 17.7639C26.4867 17.736 26.7667 17.7073 26.961 17.4995C27.1495 17.3338 27.1931 17.0633 27.1367 16.829C27.1 16.7255 27.0955 16.6168 27.0909 16.5084C27.0849 16.3618 27.0788 16.2159 26.9928 16.085C27.2259 15.9244 27.4518 15.6818 27.4245 15.3767C27.4591 15.1514 27.299 14.9746 27.1517 14.8284C27.2265 14.6349 27.2109 14.4263 27.1539 14.2311C27.392 13.9104 27.155 13.448 26.7886 13.3694C26.4574 13.2824 26.0865 13.5038 26.0134 13.8412C25.9125 13.8897 25.8115 13.9377 25.7094 13.9829C25.3608 13.7129 24.8874 13.7419 24.4925 13.8797C24.4412 13.6862 24.3743 13.4624 24.1774 13.3705C23.9894 13.2484 23.7462 13.2807 23.5583 13.385C23.4843 13.4289 23.4079 13.4035 23.3306 13.3776C23.2755 13.3593 23.22 13.3408 23.1645 13.3471C23.0528 13.3314 22.9624 13.3881 22.8727 13.4445C22.8373 13.4667 22.8021 13.4888 22.7657 13.5065C22.7516 13.4996 22.7373 13.4924 22.723 13.4853C22.5831 13.4154 22.4327 13.3402 22.2755 13.4044C21.9954 13.5071 21.7255 13.7453 21.7054 14.0604C21.5856 14.0521 21.4657 14.0493 21.3463 14.0493C21.2732 13.8043 21.1924 13.5388 20.981 13.3765C20.6732 13.1177 20.2503 13.0569 19.861 13.0804ZM20.654 13.5891C20.3557 13.4117 19.9803 13.4045 19.6534 13.5015C19.402 13.574 19.1649 13.7602 19.0982 14.0227C19.0129 14.292 19.1027 14.6357 19.3665 14.7718C19.4381 14.8107 19.5078 14.7766 19.5747 14.7438C19.5959 14.7334 19.6169 14.7232 19.6375 14.7154C19.6454 14.5856 19.5793 14.4818 19.5127 14.377C19.4662 14.3039 19.4194 14.2303 19.3971 14.1471C19.5264 13.789 19.9933 13.7086 20.3168 13.8186C20.5271 13.8816 20.6782 14.1637 20.5154 14.3455C20.423 14.4792 20.259 14.4774 20.1118 14.4758C20.0938 14.4756 20.076 14.4754 20.0586 14.4755C20.0631 14.3455 20.0736 14.2162 20.0977 14.0885C20.0793 14.0579 20.0615 14.0277 20.0441 13.9976C20.0248 13.9972 20.0051 13.9964 19.9852 13.9957C19.826 13.9898 19.6551 13.9835 19.55 14.1253C19.5622 14.143 19.5752 14.1608 19.5882 14.1787C19.6562 14.272 19.7275 14.37 19.7224 14.4907C19.7203 14.6066 19.7269 14.7223 19.7336 14.8381C19.7409 14.9641 19.7482 15.0901 19.7441 15.2163C19.7413 15.3055 19.7 15.3811 19.6586 15.4569C19.6346 15.5007 19.6107 15.5446 19.5942 15.5911C19.6191 15.6381 19.66 15.6717 19.701 15.7052C19.7188 15.7199 19.7367 15.7344 19.7532 15.7501C19.9439 15.6464 20.108 15.4943 20.2161 15.3051C20.2334 15.2366 20.2495 15.1673 20.2646 15.0987C20.205 15.0715 20.1459 15.0447 20.0867 15.0179C20.0801 14.9248 20.074 14.8317 20.0683 14.7391C20.0794 14.7375 20.0957 14.7354 20.1125 14.7333C20.1322 14.7307 20.1525 14.7281 20.1654 14.7262C20.17 14.74 20.1745 14.7537 20.1791 14.7675L20.187 14.7916L20.1946 14.8147V14.8148C20.2362 14.9415 20.2778 15.0681 20.3271 15.1925C20.48 15.5768 20.7237 15.9566 21.1018 16.1502C21.4789 16.3359 22.0031 16.2712 22.2446 15.8997C22.2428 15.8845 22.2415 15.8675 22.2401 15.8497C22.2322 15.7464 22.222 15.6136 22.0979 15.6104C21.9774 15.5988 21.8675 15.6492 21.7576 15.6996C21.6297 15.7583 21.5019 15.817 21.3573 15.7777C20.8921 15.6415 20.645 15.163 20.4849 14.7407C20.5049 14.7322 20.5252 14.7238 20.5458 14.7155C20.6602 14.6687 20.7792 14.62 20.8553 14.5188C21.0711 14.2288 20.9691 13.7642 20.654 13.5891ZM23.7629 13.6794C23.8263 13.6563 23.8934 13.6615 23.9601 13.6668C23.9837 13.6686 24.0073 13.6705 24.0306 13.6711C24.1059 13.806 24.1555 14.013 24.0144 14.1223C23.9029 14.1653 23.7384 14.1585 23.6876 14.0308C23.6062 13.9148 23.6798 13.7709 23.7629 13.6794ZM22.4538 13.7246C22.306 13.7899 22.1454 13.8713 22.0735 14.0247C22.0514 14.0966 22.1068 14.1275 22.1617 14.1581C22.1885 14.1731 22.2153 14.1881 22.2328 14.2077C22.2293 14.3991 22.2429 14.5898 22.2566 14.7805C22.2665 14.9193 22.2764 15.058 22.2797 15.1971C22.2504 15.2601 22.2123 15.3185 22.1744 15.3767V15.3767L22.1693 15.3844C22.1701 15.3993 22.171 15.4207 22.172 15.443L22.172 15.445L22.1721 15.4464C22.1733 15.4741 22.1745 15.5027 22.1754 15.5211L22.1807 15.5215L22.1921 15.5223L22.2042 15.5231L22.2193 15.5242C22.4142 15.5384 22.6174 15.5531 22.7984 15.4675C22.7976 15.4525 22.7965 15.4298 22.7954 15.407L22.794 15.3795C22.7934 15.3669 22.7928 15.3554 22.7923 15.3465C22.779 15.3333 22.7655 15.3202 22.752 15.3071C22.7098 15.2661 22.6677 15.2253 22.63 15.1809C22.5941 14.9913 22.5904 14.7957 22.5867 14.6004C22.581 14.3009 22.5753 14.0017 22.4538 13.7246ZM22.8539 13.914L22.8393 13.9265C22.8432 14.0258 22.8577 14.1272 22.9758 14.1477C22.982 14.2053 22.9893 14.2627 22.9976 14.3207C23.0032 14.4352 23.0099 14.5496 23.0166 14.664V14.6641V14.6642V14.6643V14.6644V14.6646L23.0166 14.6647V14.6648V14.6648V14.665V14.6651V14.6651C23.024 14.7918 23.0314 14.9184 23.0372 15.0451C23.0496 15.1473 23.0028 15.2345 22.9561 15.3216C22.9335 15.3639 22.9108 15.4062 22.895 15.4501L22.9059 15.4525C23.1336 15.5021 23.4577 15.5727 23.5921 15.3246C23.619 15.3448 23.6459 15.3647 23.6729 15.3847C23.7026 15.4067 23.7325 15.4287 23.7623 15.4513C23.9452 15.449 24.1282 15.4341 24.3083 15.4005C24.3101 15.3737 24.3139 15.3202 24.3161 15.2929C24.2553 15.2309 24.1951 15.169 24.1355 15.1071C24.1125 14.9904 24.1074 14.8708 24.1022 14.7513C24.0944 14.5668 24.0866 14.3828 24.0128 14.2108C23.8343 14.2846 23.6547 14.4028 23.6079 14.6042C23.6194 14.607 23.6336 14.6105 23.6492 14.6143C23.6637 14.6178 23.6794 14.6216 23.6954 14.6255L23.7069 14.6283L23.7071 14.6284C23.7443 14.6374 23.7816 14.6464 23.8064 14.6526C23.8142 14.8206 23.8142 14.9889 23.8126 15.1574L23.7988 15.1738L23.7885 15.1862C23.7797 15.1966 23.7702 15.208 23.7606 15.2193L23.7238 15.2631L23.7066 15.2835H23.5036C23.3518 15.1387 23.3541 14.9355 23.3563 14.7375C23.357 14.6699 23.3578 14.6028 23.3524 14.5389C23.3449 14.4641 23.3409 14.3881 23.3369 14.3121C23.3256 14.0993 23.3143 13.8855 23.2263 13.6895C23.079 13.7199 22.9647 13.8184 22.8539 13.914ZM26.4133 13.8378C26.5282 13.6192 26.9404 13.7218 26.8801 13.9867C26.8245 14.0826 26.7267 14.0737 26.6312 14.0652C26.5966 14.0621 26.5623 14.059 26.5304 14.0609C26.5616 14.1033 26.5999 14.1447 26.6387 14.1869C26.7605 14.319 26.8881 14.4575 26.8243 14.6482C26.7458 14.8325 26.548 14.8835 26.3634 14.9312C26.3135 14.9441 26.2645 14.9568 26.2191 14.9717L26.2137 14.9833C26.2019 15.0089 26.184 15.0472 26.1745 15.0681C26.2907 15.1278 26.4132 15.1102 26.5357 15.0926C26.6561 15.0753 26.7765 15.058 26.8912 15.1139C26.9902 15.1481 27.0345 15.2456 27.0754 15.3357C27.0811 15.3482 27.0868 15.3606 27.0925 15.3727C27.0133 15.7586 26.58 15.9087 26.2297 15.8819C26.2175 15.8797 26.2049 15.8776 26.1921 15.8755C26.0493 15.8513 25.8775 15.8224 25.8064 15.6867C25.7366 15.5517 25.8644 15.3861 26.0088 15.4123C26.0543 15.4441 26.0975 15.479 26.1407 15.5141C26.2173 15.5761 26.2939 15.6381 26.3831 15.6823C26.407 15.6732 26.4345 15.6651 26.4632 15.6566H26.4633C26.5878 15.6199 26.7338 15.5768 26.6999 15.4217C26.6319 15.3274 26.5062 15.3377 26.4044 15.346L26.3992 15.3465C26.2447 15.3587 26.0897 15.3587 25.9346 15.3554C25.9145 15.3352 25.8945 15.3151 25.8745 15.295C25.8547 15.2751 25.835 15.2552 25.8152 15.2355C25.8147 15.1841 25.8147 15.1334 25.8147 15.0833C25.876 15.0266 25.938 14.9708 26.001 14.9159C25.9808 14.893 25.9577 14.8715 25.9345 14.8499C25.8759 14.7955 25.8165 14.7404 25.803 14.6593C25.7687 14.5532 25.8143 14.4535 25.8578 14.3583C25.8659 14.3404 25.8741 14.3227 25.8815 14.3051C26.0517 14.2125 26.238 14.1606 26.4292 14.1344C26.4233 14.1137 26.415 14.092 26.4065 14.0699C26.3759 13.99 26.343 13.9041 26.4133 13.8378ZM24.9257 14.2969L24.9224 14.299C24.9203 14.3073 24.9175 14.3183 24.9144 14.3302C24.9124 14.3383 24.9101 14.3468 24.908 14.355L24.9029 14.3741L24.9028 14.3745C24.9006 14.3828 24.8987 14.3903 24.8971 14.3963C24.8569 14.3143 24.8157 14.2347 24.7555 14.1665C24.6802 14.2143 24.6066 14.2641 24.5332 14.3137C24.5113 14.3285 24.4895 14.3432 24.4677 14.3579C24.4364 14.4365 24.4153 14.5185 24.4142 14.6044L24.5803 14.6357C24.587 14.7578 24.5983 14.88 24.6228 15.0004C24.6201 15.0083 24.6174 15.0162 24.6146 15.024C24.6115 15.0329 24.6084 15.0419 24.6052 15.0509V15.051L24.6052 15.0511L24.6051 15.0512L24.605 15.0513C24.5952 15.0794 24.5854 15.1075 24.5759 15.136C24.5191 15.1885 24.4649 15.2432 24.4114 15.2989L24.4989 15.4066C24.7093 15.4183 24.9257 15.4177 25.1197 15.3229C25.0927 15.2739 25.0554 15.2304 25.0182 15.1871C24.9534 15.1116 24.8891 15.0367 24.8798 14.9336C24.8674 14.8423 24.8879 14.7529 24.9083 14.6642C24.9151 14.6351 24.9218 14.6059 24.9273 14.5768C24.9694 14.566 25.0112 14.5549 25.0531 14.5439C25.0956 14.5327 25.1382 14.5214 25.1811 14.5104C25.3018 14.7537 25.2569 15.0272 25.2142 15.2871C25.208 15.325 25.2018 15.3627 25.1962 15.4C25.3952 15.4736 25.5247 15.3184 25.6419 15.178V15.178C25.668 15.1468 25.6934 15.1164 25.7188 15.0893C25.7137 15.0199 25.6744 14.9668 25.6353 14.914C25.5922 14.8558 25.5494 14.798 25.5531 14.719C25.5502 14.6877 25.5485 14.655 25.5468 14.6217V14.6217C25.5388 14.4668 25.5301 14.2994 25.3914 14.2053C25.2371 14.1014 25.0603 14.2123 24.9257 14.2969ZM21.2324 14.4574C21.4773 14.3371 21.8119 14.419 21.9401 14.6688C22.0556 14.9205 22.0618 15.2561 21.8526 15.4608C21.6992 15.6303 21.4371 15.6114 21.2352 15.5623C20.8102 15.3761 20.8046 14.6449 21.2324 14.4574ZM18.1097 14.8339C17.9864 14.8094 17.887 14.867 17.8068 14.9566C17.7345 14.9645 17.6586 14.9605 17.5825 14.9565H17.5824C17.4253 14.9484 17.2671 14.9401 17.1365 15.035C16.9725 15.1437 16.9458 15.4003 17.0735 15.5458C17.1627 15.6768 17.4003 15.6974 17.4906 15.5563C17.6084 15.7178 17.5624 15.9055 17.518 16.0865V16.0865H17.518V16.0866C17.5046 16.1412 17.4913 16.1953 17.4828 16.2479C17.6674 16.2624 17.7734 16.1143 17.869 15.9808C17.8805 15.9647 17.8919 15.9487 17.9033 15.9333C17.8648 15.8848 17.8263 15.8369 17.7884 15.7895C17.7778 15.6668 17.7741 15.5439 17.7706 15.4209V15.4208V15.4207C17.7679 15.3306 17.7653 15.2403 17.7599 15.1503C17.7815 15.1483 17.8031 15.1468 17.8248 15.1453C17.8922 15.1404 17.9598 15.1355 18.026 15.1195C18.0163 15.1473 17.9973 15.1787 17.978 15.2108L17.978 15.2109C17.9226 15.3027 17.8639 15.3998 18.0111 15.434C18.0112 15.4458 18.0112 15.4575 18.0112 15.4693C18.0114 15.6323 18.0116 15.7969 18.0496 15.9566C18.0234 15.9985 17.9963 16.0399 17.969 16.0816V16.0816L17.9689 16.0817L17.9688 16.0817C17.9618 16.0926 17.9546 16.1034 17.9475 16.1143C17.9503 16.1362 17.9558 16.179 17.9586 16.2003C18.0926 16.1975 18.2264 16.1857 18.3591 16.1673C18.3156 16.1044 18.2744 16.0403 18.2348 15.9756C18.2291 15.8975 18.2259 15.8189 18.2247 15.7413L18.2297 15.7388C18.277 15.715 18.3245 15.6911 18.3747 15.6733C18.4834 15.8267 18.4383 16.0157 18.3797 16.178L18.5398 16.2093C18.6068 16.1402 18.6715 16.069 18.7338 15.9957L18.7188 15.9744L18.7015 15.95L18.6752 15.913L18.6669 15.9013L18.6662 15.9004L18.6645 15.8979L18.6635 15.8965L18.6306 15.8502C18.6223 15.7419 18.611 15.6344 18.5983 15.5267C18.4745 15.4452 18.3457 15.468 18.2202 15.5317C18.2177 15.4982 18.2157 15.4645 18.2138 15.4309C18.209 15.3462 18.2042 15.2617 18.1894 15.1787C18.1481 15.1642 18.0667 15.1346 18.0261 15.1195C18.1126 15.0637 18.1112 14.9644 18.11 14.8724C18.1098 14.8594 18.1096 14.8465 18.1097 14.8339ZM19.3979 15.651C19.3579 15.4397 19.1236 15.4247 18.9529 15.4586C18.8119 15.5897 18.7315 15.791 18.8324 15.9728C18.915 16.2434 19.4432 16.1971 19.4002 15.8925C19.3442 15.8989 19.2899 15.9135 19.2356 15.9281C19.1665 15.9466 19.0975 15.9652 19.0254 15.9667C19.0171 15.9421 19.0009 15.893 18.993 15.8686C19.0116 15.8677 19.0329 15.8674 19.0557 15.8672C19.2171 15.8651 19.4566 15.8622 19.3979 15.651ZM20.1002 15.9728C20.1493 15.9802 20.1965 15.9578 20.2427 15.9359C20.3064 15.9058 20.3684 15.8764 20.432 15.9253C20.5815 16.0508 20.6724 16.251 20.6652 16.4469C20.6224 16.4824 20.574 16.509 20.5257 16.5356C20.5187 16.5395 20.5116 16.5434 20.5046 16.5473L20.4851 16.5311L20.4837 16.53L20.4828 16.5291C20.3493 16.4176 20.2138 16.3044 20.0478 16.2473C19.9797 16.2716 19.9116 16.2963 19.8437 16.3214C19.8411 16.3454 19.8316 16.3717 19.8221 16.3983C19.7983 16.4643 19.7741 16.5315 19.8548 16.5673C19.9765 16.6378 20.1095 16.6853 20.2425 16.7328C20.4265 16.7985 20.6105 16.8642 20.7646 16.9907C20.9218 17.201 20.9765 17.4631 20.9514 17.7218C20.7841 18.3649 19.8834 18.5395 19.4193 18.1134C19.1293 17.8741 19.1265 17.3236 19.4756 17.1367C19.6586 17.0236 19.9257 17.0251 20.0647 17.2064C20.0392 17.2667 20.0145 17.3274 19.9896 17.3882L19.9895 17.3882L19.9889 17.3899C19.9565 17.401 19.9222 17.4096 19.8876 17.4183V17.4183C19.7896 17.443 19.6898 17.4681 19.6263 17.5505C19.5833 17.7078 19.647 17.8953 19.8054 17.96C20.0151 18.0525 20.2995 18.0313 20.4652 17.8624C20.6525 17.6488 20.5963 17.2746 20.3425 17.1379C20.2355 17.0812 20.1209 17.0404 20.0064 16.9996C19.8539 16.9453 19.7016 16.8911 19.5673 16.7994C19.3826 16.6716 19.3509 16.3972 19.4842 16.2217C19.6133 16.0164 19.8693 15.9416 20.1002 15.9728ZM26.2041 16.1857C26.1073 16.1848 26.0106 16.184 25.9336 16.2528C25.8337 16.3393 25.8087 16.4742 25.811 16.6005L25.8913 16.7298C26.0478 16.8098 26.2155 16.8632 26.3827 16.9164L26.3828 16.9165C26.4051 16.9236 26.4273 16.9307 26.4496 16.9378C26.4461 16.9538 26.4449 16.9745 26.4436 16.9964C26.4391 17.072 26.4338 17.1617 26.3308 17.1202C26.2746 17.101 26.2207 17.0686 26.167 17.0364C26.0487 16.9652 25.9313 16.8947 25.792 16.968C25.7864 17.1431 25.8723 17.3076 26.005 17.4192C26.0672 17.4456 26.1242 17.4123 26.1783 17.3806C26.1937 17.3717 26.2088 17.3628 26.2237 17.3555C26.4116 17.3891 26.599 17.3545 26.7457 17.2284C26.7516 17.204 26.759 17.1787 26.7665 17.1529C26.8005 17.0366 26.8371 16.9114 26.7463 16.8146C26.6483 16.7124 26.5145 16.6694 26.3816 16.6266H26.3814C26.3171 16.6058 26.2528 16.5852 26.193 16.5579C26.1924 16.5133 26.193 16.4692 26.1936 16.4257C26.2007 16.4248 26.21 16.4237 26.2201 16.4226C26.2272 16.4217 26.2346 16.4209 26.2421 16.42L26.2423 16.42C26.2629 16.4176 26.2838 16.4153 26.2973 16.4135C26.3161 16.4253 26.3353 16.4382 26.3548 16.4512L26.3548 16.4513C26.4834 16.5374 26.626 16.633 26.7663 16.5066C26.7189 16.3722 26.6603 16.2423 26.5845 16.1229C26.5809 16.1229 26.577 16.1229 26.5727 16.1229C26.5651 16.1229 26.5565 16.123 26.5475 16.123L26.5273 16.1232C26.5058 16.1233 26.4843 16.1234 26.4701 16.1234C26.3933 16.1874 26.2986 16.1865 26.2041 16.1857ZM23.7233 16.4408C23.8778 16.3493 24.068 16.25 24.2448 16.3493C24.5855 16.5411 24.6269 17.0582 24.4071 17.357C24.2983 17.5283 24.0411 17.579 23.8789 17.4558C23.7835 17.4067 23.7756 17.2505 23.861 17.1887C23.9408 17.177 24.0223 17.1719 24.1042 17.173C24.2341 17.0481 24.2676 16.8741 24.1828 16.7129L24.0579 16.6259C23.9385 16.627 23.7869 16.6566 23.7595 16.7955C23.7421 16.9518 23.7492 17.1098 23.7562 17.2673V17.2674V17.2674V17.2678V17.2681L23.7563 17.2686C23.7576 17.2983 23.7589 17.3279 23.7601 17.3576C23.7582 17.4273 23.8036 17.474 23.8493 17.5211C23.8742 17.5469 23.8993 17.5728 23.9168 17.6025C23.9363 17.6687 23.8927 17.719 23.8513 17.7669C23.838 17.7823 23.8249 17.7974 23.8142 17.8128C23.7991 17.8273 23.7838 17.8427 23.7682 17.8585C23.6732 17.9548 23.5679 18.0613 23.4226 18.0226C23.3804 17.9276 23.4012 17.8301 23.4221 17.7325C23.4349 17.6726 23.4477 17.6125 23.446 17.553C23.4423 17.4608 23.4356 17.369 23.4288 17.2771V17.277C23.4172 17.1181 23.4055 16.9594 23.4098 16.8C23.3785 16.7848 23.3473 16.7698 23.3162 16.7549L23.3152 16.7544C23.2929 16.7437 23.2707 16.733 23.2486 16.7224L23.2474 16.7151C23.2421 16.6822 23.2331 16.6264 23.229 16.5975L23.2361 16.5898C23.3435 16.4737 23.4614 16.3462 23.6295 16.3332C23.6439 16.3497 23.6673 16.3765 23.6886 16.401C23.7018 16.4162 23.7143 16.4305 23.7233 16.4408ZM25.662 16.4994C25.5187 16.193 25.0642 16.149 24.8354 16.38C24.6815 16.5417 24.6235 16.7837 24.6878 16.9974C24.7314 17.2836 25.0107 17.4615 25.2879 17.4575C25.3119 17.449 25.3367 17.4409 25.3618 17.4326H25.362C25.4903 17.3907 25.6273 17.3459 25.6962 17.2227C25.7025 17.173 25.6972 17.1233 25.6919 17.0739V17.0739L25.6919 17.0738C25.6897 17.0529 25.6875 17.0321 25.6861 17.0114C25.5979 17.0083 25.5132 17.0404 25.4299 17.0719C25.2959 17.1227 25.1655 17.172 25.0296 17.0716C25.024 17.0432 25.0129 16.9851 25.0078 16.9567C25.0464 16.9564 25.0855 16.9572 25.1247 16.958C25.2883 16.9613 25.4546 16.9647 25.604 16.887C25.7535 16.824 25.7184 16.6182 25.662 16.4994ZM22.2007 16.588C22.3412 16.3744 22.6335 16.3616 22.856 16.4264C23.1327 16.5285 23.1868 16.8592 23.1784 17.1179C23.1298 17.269 23.0674 17.4398 22.9134 17.514C22.8012 17.5795 22.6735 17.5767 22.5474 17.5739C22.5061 17.573 22.4651 17.5721 22.4248 17.5736C22.0685 17.3979 21.9563 16.8993 22.2007 16.588ZM21.5306 16.434C21.4241 16.462 21.3155 16.4905 21.2313 16.5651C20.8944 16.8429 20.982 17.4821 21.4018 17.6341C21.5914 17.6731 21.8128 17.6649 21.9611 17.5232C22.0478 17.4742 22.0364 17.379 22.026 17.2921C22.0232 17.2693 22.0205 17.2471 22.0198 17.2265C21.9334 17.2132 21.8505 17.243 21.7684 17.2724C21.6644 17.3098 21.5619 17.3466 21.4559 17.2945C21.2785 17.163 21.321 16.9115 21.4163 16.7425C21.5597 16.7204 21.6896 16.7755 21.8182 16.8301C21.8418 16.8401 21.8653 16.8501 21.8887 16.8596C21.9948 16.8044 22.0126 16.6634 21.9451 16.5725C21.8743 16.4994 21.776 16.4692 21.6802 16.4397C21.6538 16.4316 21.6276 16.4235 21.6021 16.4146C21.5786 16.4214 21.5547 16.4277 21.5306 16.434Z" fill="black"/>
<path d="M27.744 4.55755C27.8043 4.45883 27.9091 4.40757 28.0118 4.36234C28.0966 4.39977 28.1813 4.4382 28.265 4.47952C28.3102 4.60557 28.3676 4.75499 28.2783 4.87719C28.1461 5.08021 28.0062 5.27821 27.8634 5.47341C27.7312 5.6346 27.4908 5.64297 27.3324 5.51636C27.3101 5.45389 27.2878 5.39254 27.2655 5.33063C27.3709 5.04284 27.5767 4.8097 27.744 4.55755Z" fill="black"/>
<path d="M29.6955 5.66249C29.8384 5.74838 29.9554 5.87666 29.9639 6.05235C29.7107 6.3262 29.458 6.60116 29.1998 6.87055C29.12 6.86888 29.0397 6.86776 28.9605 6.86609C28.893 6.80028 28.8249 6.73446 28.7574 6.66971C29.0752 6.33869 29.388 6.00293 29.6955 5.66249Z" fill="black"/>
<path d="M12.5022 22.9786C12.7147 22.9647 12.9594 23.1633 12.8742 23.3902C12.7994 23.479 12.7074 23.5515 12.6198 23.6273C12.4898 23.5018 12.3638 23.3725 12.245 23.2363C12.3303 23.15 12.416 23.0641 12.5022 22.9786Z" fill="black"/>
<path d="M15.7337 25.3892C15.7655 25.3768 15.8279 25.353 15.8592 25.3407C16.0081 25.3719 16.2267 25.4383 16.2239 25.6256C16.1877 25.7444 16.1207 25.8509 16.0627 25.9602C15.8976 25.8794 15.7326 25.7986 15.5713 25.7099C15.6231 25.6019 15.6773 25.495 15.7337 25.3892Z" fill="black"/>
<path d="M24.5649 26.0167C24.7094 25.957 24.8628 25.9139 25.0206 25.9475C25.0824 26.0585 25.1293 26.1896 25.073 26.3138C24.9788 26.4059 24.8477 26.4422 24.7238 26.4751C24.6698 26.3223 24.6118 26.1711 24.5649 26.0167Z" fill="black"/>
<path d="M21.5068 26.4873C21.6798 26.435 21.8571 26.4656 22.006 26.5654C22.026 26.6322 22.0472 26.7004 22.0685 26.7679C22.026 26.8476 21.9931 26.9435 21.9084 26.9893C21.7946 27.0228 21.6774 27.0417 21.5604 27.0607C21.5219 26.8716 21.5085 26.6798 21.5068 26.4873Z" fill="black"/>
<path d="M26.1053 14.5289C26.1477 14.3705 26.3318 14.3812 26.46 14.4017C26.5016 14.4647 26.535 14.5328 26.5593 14.6043C26.4695 14.6584 26.3736 14.6996 26.277 14.7392C26.2096 14.6839 26.0512 14.6504 26.1053 14.5289Z" fill="black"/>
<path d="M21.301 14.7475C21.4204 14.6138 21.6692 14.7001 21.6902 14.8752C21.7081 15.0197 21.736 15.2188 21.5787 15.3002C21.4688 15.3153 21.3211 15.3287 21.2697 15.2043C21.2023 15.0665 21.1889 14.864 21.301 14.7475Z" fill="black"/>
<path d="M17.1983 15.3961C17.2218 15.3058 17.2067 15.1847 17.3132 15.1463C17.3852 15.1312 17.4583 15.124 17.5325 15.124C17.5375 15.2327 17.5448 15.342 17.5547 15.4519C17.4426 15.3973 17.3182 15.4045 17.1983 15.3961Z" fill="black"/>
<path d="M25.049 16.5323C25.1913 16.4999 25.3999 16.4654 25.4104 16.6706C25.2604 16.7135 25.1053 16.7346 24.9497 16.7425C24.9816 16.6717 25.015 16.602 25.049 16.5323Z" fill="black"/>
<path d="M22.4829 16.6918C22.5777 16.6483 22.6825 16.6795 22.7813 16.6923C22.8544 16.8329 22.9124 16.9957 22.8482 17.1525C22.7902 17.346 22.4734 17.3505 22.4076 17.1575C22.3847 17.0024 22.3513 16.8088 22.4829 16.6918Z" fill="black"/>
<path d="M18.9194 15.6577C19.0243 15.6259 19.1302 15.5969 19.2379 15.5729C19.2575 15.7698 19.0131 15.7899 18.9194 15.6577Z" fill="black"/>
<path fill-rule="evenodd" clip-rule="evenodd" d="M15.133 1.16154C17.2898 0.249077 19.6635 -0.124051 21.9977 0.0360204C24.2827 0.207804 26.5293 0.899398 28.5032 2.06675C30.2723 3.10916 31.8261 4.51578 33.0382 6.17393C34.4531 8.10483 35.3975 10.3798 35.7544 12.748C36.0282 14.6254 35.9724 16.5596 35.5234 18.4056C35.8156 18.9773 35.9618 19.6355 35.8631 20.2747C35.7504 21.2368 35.1336 22.1168 34.2747 22.5625C34.1998 22.614 34.111 22.6461 34.0226 22.678L34.0225 22.678L34.0224 22.6781C33.8797 22.7297 33.7378 22.781 33.6556 22.9128C32.0911 25.4192 29.7787 27.4572 27.0821 28.6692C26.5193 28.9319 25.9331 29.1399 25.3448 29.3363L25.2227 29.363C22.3883 30.2331 19.2945 30.2024 16.464 29.3285C14.3452 28.6575 12.3713 27.5253 10.7416 26.0121C9.18105 24.5737 7.92837 22.8029 7.09784 20.8492C6.72751 19.9919 6.45923 19.0951 6.2406 18.1893C5.85018 17.9507 5.3795 17.8825 4.92991 17.9345C4.2849 18.0012 3.66405 18.1835 3.04387 18.3656L3.04343 18.3657L3.04342 18.3658H3.04335H3.04327L3.04323 18.3658H3.04317H3.04309L3.04306 18.3659H3.04299C2.77064 18.4459 2.49842 18.5258 2.22432 18.5959C2.8646 18.124 3.56289 17.7314 4.28683 17.404C3.17415 17.4186 2.08235 17.6723 1.00234 17.9232L1.00169 17.9234L0.959404 17.9332L0.893552 17.9485C0.594604 18.0227 0.295601 18.099 0 18.1843C1.14838 16.9557 2.6593 16.1242 4.21706 15.5295L4.18214 15.525L4.14493 15.5203C3.63572 15.4555 3.12158 15.3901 2.63582 15.2161C2.15895 15.0565 1.71443 14.8095 1.31509 14.5049C1.44745 14.5009 1.58001 14.5011 1.71257 14.5014C1.96547 14.5019 2.21842 14.5024 2.47017 14.4731C3.65481 14.4815 4.89856 14.4174 5.95493 13.8223C6.14896 11.2539 7.03242 8.74126 8.48254 6.61349C10.1111 4.20567 12.4492 2.28148 15.133 1.16154ZM19.2586 0.572006C21.1588 0.376797 23.1014 0.505635 24.9375 1.04943C28.821 2.15598 32.1741 4.96922 33.9455 8.59675C34.8211 10.3547 35.331 12.2962 35.4207 14.2584C35.4155 14.4236 35.4246 14.5887 35.4336 14.7537V14.7537V14.7538V14.7539V14.754V14.7541V14.7542V14.7542V14.7544V14.7544V14.7545V14.7546V14.7547V14.7547V14.7549V14.7549V14.755V14.7551V14.7551V14.7552V14.7553V14.7554V14.7554L35.4336 14.7556C35.4469 14.9997 35.4602 15.2437 35.428 15.4876C35.4157 16.2957 35.3069 17.0984 35.158 17.8919C35.0509 17.7909 34.9404 17.6934 34.8268 17.5998C34.9902 16.5523 35.109 15.4886 35.0409 14.4279C35.0376 14.3642 35.0346 14.3006 35.0315 14.2369L35.0313 14.2327C35.0212 14.0206 35.0111 13.8087 34.9902 13.5973C34.7683 11.3954 34.0247 9.24641 32.8211 7.38802C31.6102 5.50125 29.9454 3.90779 28.0078 2.7806C25.9999 1.61158 23.6999 0.935038 21.3752 0.879822C21.1954 0.853273 21.0141 0.856263 20.8328 0.859252L20.8324 0.859259C20.7319 0.860913 20.6315 0.862567 20.5313 0.859185L20.4939 0.886515C18.0538 0.921094 15.6388 1.67014 13.5584 2.93565C11.5193 4.18387 9.80093 5.95301 8.61963 8.03226C7.70829 9.62015 7.11937 11.3898 6.88456 13.2047C6.79806 13.31 6.67876 13.3788 6.56119 13.4465L6.56108 13.4466C6.52929 13.4649 6.49766 13.4831 6.46682 13.502C6.73174 10.7976 7.80762 8.18564 9.48642 6.05168C11.2388 3.8157 13.6577 2.10568 16.3561 1.21447C17.2987 0.902745 18.273 0.688573 19.2586 0.572006ZM20.8286 1.82078C20.5888 1.5737 20.1872 1.59546 19.8989 1.74103C19.4794 1.98253 19.5263 2.70815 19.968 2.90112C20.0437 2.94059 20.1272 2.96411 20.2105 2.98757L20.2107 2.98764C20.3381 3.02348 20.4651 3.05921 20.5631 3.15155C20.6117 3.29706 20.5704 3.44994 20.4968 3.57933C20.4718 3.57799 20.4451 3.57929 20.4181 3.5806L20.418 3.58061C20.3324 3.58478 20.2433 3.58912 20.1912 3.51073C20.142 3.44851 20.1203 3.37293 20.0988 3.29795L20.0987 3.29747C20.0898 3.26643 20.0809 3.23549 20.0702 3.20565C19.9017 3.20732 19.7333 3.20732 19.5648 3.20732L19.5688 3.23255L19.5691 3.23437L19.5693 3.2354C19.6058 3.46528 19.6451 3.71279 19.8225 3.88051C20.1682 4.16713 20.789 4.10974 21.0105 3.69367C21.1589 3.41034 21.1784 3.00988 20.9302 2.77563C20.7583 2.60421 20.5289 2.53006 20.3026 2.45692C20.2367 2.43558 20.171 2.41434 20.107 2.39079C20.1092 2.30657 20.1136 2.22291 20.1215 2.13925C20.145 2.13661 20.1687 2.133 20.1924 2.12937L20.1929 2.1293L20.193 2.12928C20.2696 2.1176 20.3472 2.10577 20.4232 2.12531C20.5091 2.15393 20.5365 2.23863 20.5631 2.32097L20.5631 2.32111L20.5635 2.3223C20.5751 2.35822 20.5866 2.39365 20.6028 2.4237C20.7595 2.42537 20.9168 2.41645 21.0735 2.40306C21.0634 2.36574 21.0543 2.32737 21.0451 2.28868L21.045 2.28853C21.0044 2.11797 20.9622 1.94122 20.8286 1.82078ZM22.1108 1.76501C22.3869 1.70924 22.7316 1.7176 22.9352 1.94404C23.1031 2.11471 23.1242 2.36904 23.122 2.59548C22.9765 2.59158 22.8314 2.57931 22.6876 2.56146C22.6607 2.50267 22.6399 2.4417 22.6192 2.38075L22.6191 2.38066C22.6032 2.33409 22.5874 2.28751 22.5687 2.24188C22.5409 2.2378 22.5115 2.22826 22.4816 2.21857L22.4815 2.21854C22.4091 2.19505 22.3342 2.17072 22.2725 2.22124C22.1598 2.27311 22.1454 2.4488 22.2659 2.50011C22.3127 2.52497 22.3609 2.54872 22.4092 2.57255L22.4106 2.57326C22.6058 2.66951 22.8043 2.7674 22.9363 2.9463C23.1461 3.20621 23.0841 3.59551 22.9068 3.85541C22.6218 4.25866 21.928 4.23752 21.6563 3.83316C21.5444 3.66717 21.5389 3.46212 21.5336 3.2679V3.26784C21.533 3.24339 21.5323 3.21911 21.5315 3.19511C21.5589 3.19843 21.5863 3.20183 21.6137 3.20523L21.6139 3.20525C21.7521 3.22239 21.8904 3.23953 22.0295 3.24698C22.0376 3.28197 22.0425 3.31881 22.0474 3.35584L22.0476 3.35691L22.0476 3.35704C22.0606 3.45474 22.0738 3.55391 22.1455 3.62568C22.1915 3.65278 22.2434 3.66708 22.2948 3.68129C22.307 3.68466 22.3192 3.68803 22.3313 3.69155C22.3636 3.6737 22.4272 3.63857 22.459 3.62066C22.5275 3.49908 22.542 3.36076 22.517 3.22467C22.4349 3.17271 22.3461 3.13052 22.2572 3.08833L22.2572 3.08829C22.1038 3.01545 21.9505 2.94264 21.8326 2.81975C21.5704 2.49286 21.6848 1.8944 22.1108 1.76501ZM17.6384 2.11136C17.8437 1.94906 18.1264 1.90946 18.3762 1.97416C18.6685 2.0779 18.8642 2.36346 18.9049 2.6652C18.741 2.70703 18.5763 2.74774 18.4096 2.77229C18.3884 2.70532 18.3675 2.63835 18.3468 2.5717L18.3338 2.53023C18.2457 2.51015 18.1581 2.49063 18.0701 2.47111C18.0542 2.48213 18.0375 2.49277 18.0207 2.5035C17.9447 2.55191 17.8662 2.60202 17.847 2.69699C17.8983 3.00654 17.9641 3.31385 18.0366 3.61838C18.0762 3.82474 18.3667 3.89117 18.505 3.74164C18.571 3.68436 18.5731 3.59893 18.5752 3.51563C18.5761 3.48052 18.5769 3.44578 18.5826 3.41369C18.7337 3.36628 18.8871 3.31887 19.0449 3.29768C19.1514 3.4438 19.1425 3.64459 19.0995 3.81247C18.9902 4.1064 18.6851 4.26647 18.3979 4.34009C18.0186 4.39307 17.5904 4.1354 17.5312 3.74108C17.515 3.65785 17.4986 3.57465 17.4823 3.49146L17.4819 3.48958L17.4819 3.48945C17.4305 3.22877 17.3791 2.9681 17.3348 2.70647C17.287 2.4633 17.4554 2.24857 17.6384 2.11136ZM25.4462 3.28541C25.57 3.02606 25.8059 2.7695 26.1171 2.78288C26.5488 2.78567 27.0373 3.14095 26.9648 3.61503C26.9249 3.82348 26.8333 4.01395 26.7417 4.20447C26.6899 4.31215 26.6381 4.41986 26.5956 4.53084C26.5467 4.63276 26.5026 4.73722 26.4586 4.8417C26.3821 5.0231 26.3055 5.20457 26.2035 5.37302C26.0936 5.34443 25.9912 5.29579 25.889 5.24723L25.889 5.2472L25.8872 5.24637C25.8485 5.22798 25.8098 5.20961 25.7707 5.19237C25.7953 5.04607 25.8584 4.91344 25.9216 4.78095L25.9218 4.78042C25.9506 4.72014 25.9793 4.65989 26.0044 4.59838C26.0588 4.46931 26.1165 4.34159 26.1741 4.2139L26.1742 4.21366L26.1764 4.20891L26.1765 4.20874L26.1767 4.20817C26.2575 4.02931 26.3383 3.85047 26.4104 3.66807C26.4509 3.58519 26.418 3.50475 26.3858 3.42648C26.3773 3.40572 26.3689 3.38512 26.3619 3.36466C26.3502 3.36294 26.3382 3.36103 26.3258 3.35907L26.3255 3.35903C26.1974 3.33869 26.0387 3.3135 25.9737 3.45278C25.8632 3.6953 25.7556 3.93916 25.6481 4.18297L25.648 4.18322L25.6478 4.18351L25.6478 4.18364L25.6477 4.18374C25.5355 4.43815 25.4233 4.69252 25.3078 4.94529C25.1231 4.92689 24.958 4.83653 24.8008 4.74562C24.9117 4.4894 25.0255 4.23429 25.1392 3.97915L25.1393 3.97909V3.97903L25.1394 3.97898V3.97886L25.1394 3.97874L25.1395 3.97862L25.1395 3.97851L25.1396 3.97839L25.1396 3.97827L25.1397 3.97821V3.97809L25.1397 3.97798L25.1398 3.97792V3.97786L25.1399 3.97774L25.1399 3.97768V3.97758L25.1451 3.96596C25.2461 3.73942 25.3471 3.51285 25.4462 3.28541ZM13.6731 3.77154L13.673 3.77156L13.673 3.77161L13.6729 3.77163L13.6729 3.77166L13.6728 3.77171C13.6451 3.78851 13.6175 3.80531 13.5898 3.82195C13.8467 4.25356 14.0969 4.68906 14.3471 5.12473L14.3473 5.12503L14.3498 5.12937L14.3498 5.12945L14.3499 5.12961L14.3503 5.13028C14.4993 5.38973 14.6484 5.64921 14.7989 5.90801C14.9696 5.8128 15.1384 5.71439 15.3071 5.616L15.3134 5.61235C15.54 5.48011 15.7666 5.34796 15.9975 5.2236C15.9222 5.07636 15.8407 4.93247 15.7548 4.7908C15.5867 4.87647 15.4238 4.97195 15.2607 5.06756L15.2604 5.06773L15.2604 5.06775L15.2603 5.06778C15.1741 5.11831 15.0879 5.16886 15.0008 5.21803C14.8429 4.96308 14.6942 4.70244 14.5456 4.44184L14.5455 4.44172L14.5455 4.44166L14.5455 4.44159L14.5449 4.44068V4.44061L14.544 4.4389C14.3771 4.1463 14.2102 3.85376 14.0303 3.56929C13.9077 3.62903 13.791 3.69994 13.6744 3.77075L13.6731 3.77154ZM27.6219 3.99429C27.9839 3.75335 28.5383 3.89334 28.7412 4.27762C28.7874 4.35471 28.8152 4.44016 28.8431 4.52568L28.8431 4.52589L28.8432 4.52608V4.52623L28.8433 4.52636C28.8521 4.55322 28.8608 4.58008 28.8701 4.60669C28.859 4.76341 28.8378 4.9285 28.7396 5.0579C28.6616 5.16582 28.5856 5.27528 28.5096 5.38473L28.5082 5.38678L28.5081 5.3868V5.38686L28.508 5.38692L28.508 5.38701L28.5079 5.38704V5.3871L28.5079 5.38716L28.5078 5.38724L28.5078 5.38733L28.5074 5.3879L28.5073 5.38797L28.5072 5.3881L28.5071 5.38829L28.507 5.38839C28.3781 5.57409 28.2492 5.75976 28.1105 5.93796C27.9482 6.14103 27.6615 6.18392 27.42 6.12876C26.9694 6.04342 26.6364 5.52356 26.8193 5.08685C26.8897 4.9595 26.9745 4.841 27.0594 4.72247L27.0597 4.72209L27.0597 4.72207C27.1145 4.64555 27.1692 4.56901 27.2202 4.49007C27.2543 4.44449 27.2865 4.397 27.3188 4.34939L27.3206 4.34679C27.408 4.21763 27.4957 4.08797 27.6219 3.99429ZM13.3293 4.79626C13.0403 4.4923 12.5133 4.55476 12.2366 4.84311C12.1256 4.9579 12.0844 5.11355 12.0447 5.26353L12.0445 5.26441C12.0427 5.27107 12.0409 5.27771 12.0392 5.28433L12.0387 5.28601C11.7487 5.29946 11.4559 5.46282 11.3589 5.74726C11.2389 6.01888 11.2775 6.36245 11.4972 6.57216C11.6699 6.75326 11.8403 6.93674 12.0108 7.12024L12.0109 7.12032L12.011 7.12044L12.0115 7.12103L12.0155 7.12527C12.2162 7.34126 12.4171 7.55734 12.6216 7.76968L12.6266 7.76539L12.6267 7.76528C12.7594 7.65293 12.8924 7.54035 13.0031 7.40598C12.9612 7.36175 12.9192 7.31747 12.8773 7.27324L12.8746 7.27039C12.5385 6.91589 12.2025 6.56145 11.8776 6.19736C11.7482 6.07633 11.8424 5.86829 11.9958 5.82535C12.1284 5.78777 12.2224 5.88666 12.3062 5.97487L12.3063 5.97499C12.3169 5.9862 12.3273 5.99719 12.3377 6.00773C12.5177 6.21132 12.7039 6.40934 12.8902 6.60732L12.8929 6.6102L12.8929 6.61025L12.893 6.61037L12.893 6.61042H12.8931V6.61048L12.8931 6.61053L12.8932 6.61059L12.8933 6.61064L12.8933 6.6107L12.8934 6.61076L12.8974 6.615C13.0486 6.77578 13.1998 6.93658 13.3477 7.10039C13.3845 7.06693 13.4207 7.03285 13.457 6.99877L13.457 6.99872L13.4571 6.99866L13.4571 6.99861L13.4572 6.99855L13.4572 6.9985C13.5379 6.92259 13.6186 6.84674 13.7052 6.77746C13.7063 6.74283 13.7074 6.70825 13.7091 6.67423L13.6359 6.59765L13.6359 6.59759L13.6353 6.59702L13.6353 6.59696C13.2911 6.23676 12.9465 5.87622 12.6171 5.50298C12.5189 5.38981 12.5948 5.24084 12.6634 5.13542C12.6891 5.13624 12.7161 5.13466 12.7435 5.13307L12.7437 5.13305C12.8296 5.12805 12.9189 5.12284 12.9818 5.19008C13.1765 5.37711 13.3582 5.57688 13.5398 5.77671L13.5399 5.77677C13.7282 5.98391 13.9166 6.19111 14.1196 6.38415C14.1824 6.32653 14.2442 6.26758 14.3059 6.20857C14.3638 6.15335 14.4217 6.09814 14.4805 6.04393C14.2334 5.76177 13.9768 5.48842 13.7204 5.21532L13.7203 5.21525L13.7203 5.2152L13.7202 5.21515L13.7202 5.21509L13.7201 5.21506L13.7109 5.20528L13.7109 5.20524L13.7108 5.20518L13.7108 5.20514C13.5832 5.06918 13.4555 4.93323 13.3293 4.79626ZM29.4055 5.17C29.4241 5.15125 29.4423 5.13086 29.4606 5.11029C29.5349 5.02685 29.6119 4.94042 29.7341 4.94802C29.8173 5.04942 29.9177 5.13907 30.018 5.22871L30.0181 5.22875C30.2141 5.4039 30.4102 5.57907 30.4791 5.84208C30.5149 6.0591 30.4674 6.30166 30.3118 6.46396C30.0843 6.71996 29.8511 6.9715 29.6096 7.21468C29.4167 7.41769 29.101 7.43437 28.8488 7.35355C28.6037 7.22124 28.4027 7.02629 28.203 6.83259L28.2028 6.8324C28.1442 6.77551 28.0857 6.71868 28.0262 6.66363C28.2657 6.39025 28.5151 6.12592 28.7644 5.86158L28.7645 5.86153L28.769 5.8568L28.769 5.85675L28.7691 5.85664L28.7691 5.85658L28.7692 5.85653L28.7692 5.85647L28.7693 5.85641L28.7693 5.85636L28.7694 5.8563C28.9835 5.62941 29.1976 5.40253 29.4055 5.17ZM30.1149 7.42807L30.1138 7.4289L30.0966 7.44134C29.8476 7.62209 29.5986 7.80288 29.3492 7.98324C29.4794 8.19199 29.627 8.38907 29.7745 8.58613L29.7753 8.58727L29.7754 8.58738L29.7761 8.58828L29.7762 8.58835C29.8712 8.71536 29.9664 8.84243 30.0569 8.97261C30.1969 8.88343 30.3325 8.78806 30.4646 8.68766C30.3317 8.49028 30.1906 8.29959 30.0494 8.10895L30.048 8.10706L30.1215 8.01553L30.1347 8.00633L30.1533 7.99328L30.1719 7.98023H30.172C30.2598 7.9186 30.348 7.85686 30.4411 7.80253C30.5197 7.89255 30.589 7.99004 30.6583 8.08765L30.6586 8.08798L30.6586 8.08804L30.6587 8.08815C30.6739 8.10951 30.6891 8.13093 30.7044 8.15223C30.8326 8.0669 30.9576 7.97593 31.0808 7.88396C31.0571 7.84258 31.0278 7.80337 30.9985 7.76416L30.9984 7.76406C30.933 7.67642 30.8676 7.58865 30.8634 7.4762C30.9682 7.40592 31.0731 7.33515 31.1768 7.26259C31.2048 7.30196 31.2325 7.34156 31.2602 7.38122L31.2603 7.38139C31.3708 7.5394 31.4816 7.69773 31.6091 7.84213C31.7124 7.78747 31.8062 7.71764 31.9 7.64782L31.9067 7.64285L31.9068 7.64276C31.9429 7.61594 31.979 7.58913 32.0157 7.56326C31.9178 7.42567 31.8183 7.28924 31.7188 7.15282L31.7187 7.15277L31.7187 7.15266L31.7186 7.1526V7.15249L31.7186 7.15243L31.7185 7.15238L31.7184 7.15226L31.7184 7.15221L31.7183 7.15215L31.7183 7.15204L31.7182 7.15199L31.7182 7.15187L31.7181 7.15182L31.7181 7.15176L31.718 7.1516L31.7179 7.15154L31.7179 7.15143L31.7178 7.15137L31.7178 7.15126L31.7177 7.1512L31.7153 7.14787C31.5755 6.95629 31.4358 6.76473 31.3006 6.56987C30.9113 6.84998 30.5232 7.1317 30.135 7.41345L30.1345 7.41383L30.1149 7.42807ZM10.3286 6.83541C10.3417 6.81779 10.3541 6.79955 10.3665 6.78126C10.4042 6.72587 10.4422 6.67027 10.4971 6.63128C10.5978 6.67604 10.6844 6.7449 10.7709 6.8137L10.7714 6.81411C10.8097 6.84462 10.848 6.87507 10.8875 6.90346C10.8655 6.93413 10.8432 6.96469 10.821 6.99525L10.8209 6.99537L10.8208 6.9956L10.8207 6.99571L10.8206 6.99582L10.8205 6.99587L10.8205 6.99599L10.8204 6.9961L10.8204 6.99615L10.8203 6.99627L10.8202 6.99632C10.7406 7.10586 10.6611 7.21529 10.588 7.33013C10.812 7.49054 11.0347 7.65267 11.2575 7.81481L11.28 7.8312C11.5615 8.03623 11.843 8.24119 12.1268 8.44276C12.0556 8.57784 11.9632 8.69932 11.8711 8.82029L11.8572 8.83864L11.8507 8.84712C11.5972 8.6677 11.3462 8.48493 11.0952 8.30215V8.3021H11.0952H11.0951L11.095 8.30204V8.30199H11.095L11.0949 8.30193L11.0949 8.30188L11.0948 8.30182H11.0948L11.0947 8.30176L11.0947 8.30171L11.0945 8.3016L11.0875 8.29644C10.8214 8.10273 10.5553 7.909 10.2863 7.71937C10.2707 7.74238 10.2553 7.76555 10.2399 7.78875L10.2397 7.7891L10.2313 7.80164C10.1613 7.90716 10.0911 8.01286 10.0096 8.10979C9.90271 8.10433 9.81708 8.03368 9.73235 7.96378L9.73221 7.96366C9.68748 7.92674 9.64297 7.89004 9.59579 7.86327C9.72641 7.65345 9.87432 7.45551 10.0223 7.25751L10.0256 7.25313C10.1285 7.11527 10.2315 6.97742 10.3286 6.83541ZM9.30353 8.42776C9.19701 8.58666 9.10888 8.75677 9.02132 8.92693C9.18412 9.02141 9.35005 9.11049 9.51603 9.19956C9.63611 9.26398 9.75619 9.32845 9.8751 9.39493C9.81822 9.49031 9.76467 9.58735 9.71224 9.68496C9.57303 9.62194 9.43892 9.54866 9.30489 9.4754L9.30409 9.47497L9.30392 9.47487C9.16555 9.39922 9.02727 9.32362 8.8835 9.2594C8.82373 9.28037 8.7954 9.33846 8.76763 9.39538L8.7676 9.39543L8.76758 9.39549C8.7547 9.4219 8.74194 9.4481 8.72622 9.47017C8.71495 9.49895 8.69878 9.5279 8.68232 9.55723L8.68223 9.55741C8.64433 9.62529 8.60532 9.69517 8.62359 9.76912C8.87184 9.89957 9.1192 10.032 9.36667 10.1646C9.81649 10.4055 10.2665 10.6465 10.7224 10.8757C10.7441 10.835 10.7659 10.7943 10.7878 10.7536L10.7878 10.7535L10.7879 10.7534L10.7898 10.7499C10.855 10.6287 10.9202 10.5073 10.9812 10.3838C10.8284 10.2729 10.6603 10.1883 10.4922 10.1039L10.4913 10.1034C10.3792 10.047 10.2671 9.99064 10.1597 9.92646C10.1867 9.8661 10.2143 9.80595 10.2417 9.74602L10.2431 9.74291L10.2432 9.74274L10.2432 9.74257C10.2599 9.70621 10.2765 9.6699 10.293 9.63364C10.4752 9.69845 10.6437 9.79377 10.8123 9.8892C10.9192 9.94972 11.0262 10.0103 11.1368 10.0631C11.1604 10.0199 11.189 9.97633 11.2181 9.93199L11.2193 9.93019L11.2196 9.9298C11.2995 9.80816 11.3828 9.68135 11.3766 9.54379C10.9516 9.29641 10.5152 9.06776 10.0789 8.83916L10.0787 8.83909L10.0786 8.83903L10.0786 8.83898L10.0705 8.83474C9.81399 8.70034 9.55753 8.56596 9.30353 8.42776ZM30.3057 9.19242C30.3688 9.02063 30.5818 9.00998 30.7174 9.09983C30.7765 9.22142 30.7814 9.35026 30.714 9.46961C30.6459 9.49638 30.5784 9.52316 30.5109 9.55104C30.3866 9.48133 30.2031 9.35583 30.3057 9.19242ZM31.4116 9.50865C31.2014 9.60068 30.99 9.73454 30.8969 9.95429C30.7006 10.3704 31.0068 10.9142 31.4552 10.9889C31.6961 11.0344 31.9235 10.9359 32.1428 10.8408L32.1429 10.8407L32.1431 10.8406C32.1897 10.8205 32.2359 10.8004 32.2817 10.782C32.4716 10.6903 32.6631 10.6019 32.8546 10.5135L32.8548 10.5134C33.0464 10.425 33.2379 10.3366 33.4279 10.2449C33.3857 10.1386 33.3383 10.0349 33.2908 9.93125L33.2907 9.9312C33.2589 9.86182 33.2271 9.79243 33.197 9.72227C32.9752 9.81848 32.7565 9.92183 32.5378 10.0252L32.5356 10.0263C32.2403 10.1658 31.9449 10.3054 31.642 10.4273C31.5798 10.4589 31.5182 10.4322 31.458 10.4061L31.4579 10.4061L31.4565 10.4054C31.4314 10.3945 31.4066 10.3838 31.3821 10.3776C31.3508 10.1968 31.4858 10.0826 31.6303 10.005C31.5897 9.90956 31.5475 9.81497 31.5053 9.72048C31.4738 9.64993 31.4424 9.57943 31.4116 9.50865ZM23.0401 4.95695C20.9178 4.50406 18.6524 4.74557 16.679 5.65133C14.5178 6.62788 12.7202 8.377 11.6822 10.5091C11.8892 10.459 12.0997 10.4348 12.3104 10.4105C12.3761 10.403 12.4419 10.3954 12.5076 10.387C12.9912 10.286 13.4362 10.0663 13.8769 9.84876L13.9031 9.83585L13.9034 9.83573C13.9597 9.80796 14.0159 9.78024 14.0721 9.75289C14.8429 9.35968 15.6539 8.98767 16.5312 8.93915C17.2405 8.34956 17.9735 7.78574 18.7448 7.2787C19.5986 6.72604 20.4989 6.21788 21.4838 5.9418C22.0137 5.7901 22.5775 5.74777 23.1225 5.83304C23.8938 5.9669 24.5419 6.53635 24.8581 7.24022C25.0254 7.79171 25.0572 8.36507 25.089 8.93736C25.103 9.18974 25.117 9.44195 25.1426 9.69204C25.143 9.70393 25.1434 9.7159 25.1438 9.72789L25.1443 9.74508C25.1524 9.99935 25.1609 10.2683 25.3501 10.4612C25.3625 10.5611 25.3779 10.6606 25.3964 10.7596C25.4167 10.7606 25.4382 10.7594 25.4601 10.7582L25.4603 10.7582C25.5318 10.7543 25.6065 10.7502 25.6462 10.8232C25.8526 11.0664 26.0584 11.3096 26.2642 11.5539C26.3138 11.6169 26.378 11.666 26.4499 11.7034C26.9045 11.951 27.3864 12.1451 27.8727 12.3208C28.8973 12.6861 29.9509 12.97 31.0179 13.1791C30.8885 12.3761 30.6297 11.5991 30.3118 10.8528C29.8417 9.80649 29.1991 8.83993 28.4189 7.99947C26.9911 6.47071 25.0898 5.38535 23.0401 4.95695ZM20.1007 7.51195C20.8777 7.0652 21.7042 6.64299 22.6067 6.53976C23.179 6.46279 23.8236 6.63178 24.1812 7.11144C24.4613 7.41797 24.5023 7.84637 24.5402 8.24248L24.5427 8.26897L24.5449 8.29106C24.5686 8.48097 24.5764 8.67205 24.5843 8.86318L24.5844 8.86467C24.5935 9.08677 24.6027 9.30886 24.6368 9.52924C24.5868 9.53883 24.5369 9.54987 24.487 9.56097H24.4869L24.4863 9.56111C24.3768 9.58538 24.2672 9.60968 24.1555 9.61847L24.1452 9.61362L24.145 9.6135C24.0649 9.57562 23.9857 9.53811 23.9151 9.48517C23.8866 9.37363 23.8693 9.25985 23.852 9.14607C23.1945 9.26821 22.5011 9.4043 21.963 9.82813C21.6924 10.0345 21.5323 10.3536 21.4766 10.6848C21.4765 10.688 21.4765 10.6912 21.4765 10.6944L21.4765 10.6991L21.4765 10.7038L21.4763 10.7176L21.4762 10.7297V10.7298L21.4762 10.7317C21.4756 10.8161 21.4749 10.9008 21.481 10.986C21.5418 11.0366 21.6204 11.0445 21.6985 11.0523L21.6987 11.0523C21.7374 11.0562 21.776 11.06 21.8123 11.069C21.6589 11.3508 21.5217 11.6458 21.4799 11.9671V12.1902C21.6456 12.1642 21.7954 12.0939 21.9453 12.0234L21.9457 12.0232C22.0282 11.9843 22.1108 11.9455 22.1961 11.9141C22.1855 11.9715 22.1648 12.0864 22.1548 12.1439C22.1498 12.2219 22.1453 12.3 22.1415 12.3781C22.1916 12.5016 22.2523 12.6207 22.3227 12.7339C22.5316 12.6884 22.7236 12.5976 22.9155 12.5066C23.0418 12.4468 23.1681 12.387 23.2993 12.3401L23.2613 12.5319C23.2747 12.5699 23.301 12.6452 23.3137 12.6825C23.67 12.5955 24.0069 12.4426 24.3071 12.2319C24.3872 12.1804 24.4669 12.1257 24.547 12.0706L24.5471 12.0706L24.5471 12.0705H24.5472L24.5473 12.0705H24.5473V12.0704H24.5474L24.5474 12.0703L24.5475 12.0703L24.5475 12.0702H24.5476L24.5477 12.0702L24.5478 12.0701L24.5478 12.0701C24.8584 11.8566 25.1757 11.6385 25.5537 11.5893C25.6819 11.6701 25.7771 11.7925 25.8728 11.9157L25.8731 11.9161C25.9756 12.0479 26.0786 12.1804 26.2236 12.2637C26.6798 12.5391 27.1752 12.7421 27.6715 12.933C28.691 13.3117 29.7401 13.6105 30.8043 13.8342C30.9541 13.8669 31.1046 13.8969 31.2552 13.9268H31.2552L31.2553 13.9269H31.2554H31.2555H31.2556L31.2556 13.927H31.2557L31.2564 13.9271C31.6616 14.0077 32.067 14.0883 32.4579 14.2241C32.758 14.3328 33.0604 14.5163 33.1931 14.8203C33.4429 15.4176 33.4396 16.1243 33.1452 16.7049C32.8814 17.1912 32.4106 17.5883 31.8595 17.6942C29.6531 18.2045 27.411 18.5476 25.1679 18.8459C25.0211 18.8622 24.8743 18.8787 24.7276 18.8952L24.7269 18.8953H24.7268L24.7267 18.8953H24.7267H24.7266H24.7265H24.7265H24.7264H24.7263H24.7262H24.7262L24.7261 18.8954H24.726H24.726C24.2072 18.9539 23.6888 19.0124 23.1683 19.0563C21.6279 19.1941 20.0812 19.2715 18.5334 19.2526C18.0265 19.2599 17.515 19.2482 17.0197 19.1305C16.8257 19.057 16.6265 18.9743 16.4865 18.8149C16.2947 18.6286 16.2411 18.3576 16.192 18.106C16.1737 18.0027 16.1539 17.8996 16.1342 17.7963L16.1334 17.7922L16.1333 17.7919C16.065 17.4351 15.9966 17.0778 15.9845 16.7139C15.9721 16.42 16.0402 16.1356 16.1082 15.8517L16.1084 15.8508C16.1352 15.7394 16.1618 15.6281 16.1836 15.5163C16.2573 15.1492 16.3261 14.7811 16.3948 14.4129L16.3949 14.4126L16.3952 14.4108C16.5508 13.578 16.7065 12.7449 16.9187 11.9239C16.9391 11.8512 16.9436 11.7763 16.948 11.7015C16.9523 11.6272 16.9567 11.5528 16.9767 11.4807C17.0801 11.0485 17.1955 10.6194 17.3108 10.1904L17.3109 10.1902L17.3156 10.1728C17.3784 9.93887 17.4413 9.70495 17.5021 9.47051C17.5073 9.45623 17.5116 9.44117 17.516 9.42605L17.516 9.426C17.5292 9.38034 17.5427 9.33368 17.5791 9.30318C18.3818 8.65532 19.2117 8.03678 20.1007 7.51195ZM12.9595 11.1161C13.5748 10.9921 14.1353 10.7111 14.6952 10.4305C15.3494 10.1028 16.0026 9.77542 16.741 9.6994C16.6653 10.0088 16.582 10.3162 16.4986 10.6237L16.4981 10.6255L16.498 10.6258C16.4071 10.9612 16.3162 11.2967 16.2351 11.6348C16.2147 11.7231 16.2047 11.8133 16.1947 11.9034L16.1946 11.9035C16.1816 12.0204 16.1686 12.1372 16.133 12.2499C15.9416 12.9934 15.8013 13.7477 15.661 14.5021L15.661 14.5022C15.5402 15.152 15.4193 15.8018 15.2658 16.4447C15.176 16.8618 15.2262 17.293 15.3054 17.7079C15.345 17.9851 15.4035 18.2617 15.5117 18.5216C15.0549 18.5412 14.6065 18.6968 14.2178 18.9339C14.0633 19.0248 13.9223 19.1396 13.7815 19.2543L13.7812 19.2546L13.7811 19.2546C13.5177 19.4692 13.2549 19.6832 12.9065 19.7391C12.5341 19.7661 12.1907 19.645 11.8467 19.5236C11.572 19.4266 11.2967 19.3295 11.0058 19.3075C10.891 19.307 10.78 19.3343 10.6689 19.3618C10.5501 19.3912 10.4311 19.4206 10.3074 19.4157C10.3509 19.3833 10.3945 19.3521 10.4385 19.3208C10.4855 19.2962 10.5324 19.2711 10.5794 19.2459L10.5796 19.2458H10.5796C10.8683 19.0912 11.1608 18.9344 11.4893 18.8875C11.6352 18.8709 11.7812 18.8563 11.9274 18.8417L11.9277 18.8416H11.9278L11.9279 18.8416C12.2487 18.8096 12.5696 18.7775 12.8875 18.7246C13.1407 18.6789 13.3739 18.5595 13.5669 18.3905C13.6567 18.3149 13.7669 18.2602 13.877 18.2055H13.877C14.0787 18.1055 14.28 18.0056 14.355 17.7776C14.3795 17.5266 14.3271 17.1217 14.0131 17.0883C13.7536 17.1255 13.5386 17.2949 13.3377 17.4531L13.3187 17.4681C13.1963 17.5645 13.0781 17.6665 12.96 17.7686L12.9599 17.7687L12.9586 17.7698C12.7455 17.9537 12.5324 18.1377 12.2941 18.2886C12.16 18.3811 11.9974 18.3775 11.8396 18.374C11.8013 18.3731 11.7632 18.3722 11.7258 18.3728C11.5721 18.3703 11.4226 18.3377 11.273 18.305L11.2729 18.305C11.1478 18.2776 11.0228 18.2503 10.8953 18.2406C10.4996 18.2824 10.1204 18.4114 9.74502 18.5391L9.74443 18.5393L9.66662 18.5658L9.64119 18.5736L9.61804 18.5808L9.61743 18.581L9.61715 18.5811C9.3256 18.6714 9.02785 18.7635 8.71964 18.7482C8.27735 18.7354 7.8557 18.5742 7.46472 18.3773C7.55218 18.3744 7.63997 18.375 7.72775 18.3756H7.72781H7.72792H7.72803H7.72809H7.72826C7.91013 18.3768 8.09224 18.378 8.27233 18.3483C8.79833 18.2727 9.29533 18.0927 9.79239 17.9126L9.79326 17.9123C10.1502 17.783 10.5073 17.6537 10.8753 17.563C11.006 17.5246 11.1415 17.5224 11.2768 17.5202L11.2772 17.5202C11.4327 17.5177 11.5881 17.5151 11.7359 17.4575C12.1514 17.3137 12.5429 16.9661 12.5998 16.511C12.6283 16.3348 12.5586 16.1708 12.4766 16.0208C12.2267 15.7938 11.8792 15.9311 11.6226 16.0705C11.2443 16.2847 10.9004 16.5496 10.5565 16.8145L10.5557 16.8152C10.2267 17.0686 9.89768 17.3221 9.53834 17.5311C9.33929 17.6443 9.11173 17.7113 8.88138 17.7019C8.56771 17.6934 8.26235 17.6267 7.95693 17.5599L7.95441 17.5593C7.78112 17.5215 7.60783 17.4836 7.43288 17.4565C6.98613 17.3734 6.53046 17.3896 6.07874 17.4074C6.66028 17.126 7.29764 17.0571 7.93372 16.9883L7.93395 16.9883L7.9376 16.9879L7.93767 16.9879L7.93777 16.9878L7.93785 16.9878C8.23068 16.9561 8.52332 16.9245 8.80999 16.8719C8.84909 16.8644 8.88863 16.8571 8.9284 16.8499L8.92862 16.8498C9.22774 16.7951 9.53923 16.738 9.7799 16.5446C9.8733 16.4772 9.88897 16.3607 9.9034 16.2533L9.90344 16.2531C9.90567 16.2362 9.9079 16.2195 9.91041 16.2033C9.79607 15.8826 9.53115 15.5769 9.16756 15.5697C8.66805 15.585 8.24342 15.8669 7.83775 16.1361L7.83746 16.1363C7.78531 16.1709 7.73344 16.2053 7.68174 16.2389C7.62643 16.2747 7.57101 16.3132 7.51506 16.3521L7.51197 16.3543L7.51191 16.3543L7.51186 16.3544C7.25157 16.5355 6.97913 16.7251 6.64931 16.6863C6.50109 16.6663 6.35409 16.6358 6.20709 16.6053L6.20485 16.6049V16.6048H6.20474H6.20463L6.20451 16.6048C5.9436 16.5506 5.68258 16.4965 5.41448 16.5L5.37822 16.476C4.97386 16.4687 4.57012 16.5117 4.17301 16.5859L4.19127 16.5744L4.2192 16.557C4.53884 16.3569 4.86329 16.1538 5.22931 16.0515C5.4902 15.9755 5.75994 15.9607 6.02977 15.946L6.0312 15.9459C6.22983 15.935 6.42852 15.9241 6.62365 15.8887C7.07809 15.7601 7.43695 15.4676 7.7965 15.1746L7.79691 15.1742L7.79698 15.1742C8.04498 14.972 8.29333 14.7696 8.57351 14.6205C8.77881 14.5207 9.01189 14.4376 9.24224 14.4883C9.55028 14.5381 9.79183 14.7212 10.0339 14.9047C10.2472 15.0665 10.4608 15.2284 10.7208 15.2998C11.2161 15.4214 11.7342 15.2335 12.1347 14.9429C12.3522 14.7917 12.5302 14.5748 12.5892 14.3121C12.4894 14.0343 12.1425 13.9802 11.8854 14.0041C11.6166 14.0281 11.4169 14.1907 11.2165 14.354L11.2164 14.354L11.2156 14.3547C11.0949 14.453 10.9739 14.5514 10.8374 14.6199C10.5142 14.5844 10.243 14.4233 9.9712 14.2619C9.78709 14.1526 9.60271 14.0431 9.40181 13.9725C9.08167 13.8916 8.71021 13.9306 8.45081 14.1503C8.03758 14.4827 7.60416 14.8162 7.08602 14.9662C6.48422 15.1614 5.83451 15.0645 5.24665 14.8671C5.86128 14.8046 6.48483 14.6734 7.01747 14.3461C7.2515 14.2066 7.46411 14.0282 7.67655 13.85C8.05693 13.5308 8.43697 13.212 8.93944 13.1169C9.37504 13.0037 9.80555 13.1989 10.1798 13.4052C10.1926 13.4117 10.2055 13.4181 10.2184 13.4246C10.4442 13.538 10.6883 13.6606 10.9467 13.6115C11.2315 13.5467 11.4623 13.3747 11.6923 13.2031C11.7952 13.1264 11.8979 13.0498 12.0053 12.9829C12.068 12.9423 12.1392 12.9158 12.2101 12.8893C12.3253 12.8464 12.44 12.8037 12.5173 12.7013C12.5971 12.635 12.5958 12.5362 12.5946 12.4404V12.4404V12.4402V12.4402L12.5946 12.4401C12.5942 12.41 12.5938 12.3804 12.5959 12.3521C12.4888 12.2332 12.3433 12.1395 12.1764 12.172C11.8764 12.1979 11.6442 12.3712 11.4111 12.5453C11.223 12.6858 11.0343 12.8266 10.8089 12.8909C10.6536 12.9243 10.5045 12.8729 10.3584 12.8226L10.3583 12.8225L10.3521 12.8204C10.3197 12.8093 10.2876 12.7982 10.2556 12.7883C9.95832 12.6851 9.6471 12.6087 9.32975 12.6232C9.12807 12.6131 8.93336 12.6584 8.73877 12.7037C8.65299 12.7236 8.56715 12.7435 8.48081 12.7588C8.49414 12.7469 8.50747 12.7351 8.5208 12.7231L8.52097 12.723C8.64038 12.6163 8.76147 12.5082 8.91144 12.4464C9.15021 12.3381 9.40811 12.3231 9.66629 12.3081L9.66751 12.308C9.8371 12.2981 10.0069 12.2882 10.1714 12.2517C10.4404 12.1856 10.6646 12.0279 10.8881 11.8708L10.8881 11.8708L10.8889 11.8703C10.9798 11.8064 11.0705 11.7426 11.1642 11.6851C11.5027 11.4547 11.8847 11.2864 12.2879 11.2088C12.4002 11.1814 12.515 11.1712 12.6298 11.1609C12.7403 11.1511 12.8509 11.1412 12.9595 11.1161ZM33.2567 11.1205C33.0163 11.1473 32.7491 11.2359 32.6271 11.4624C32.5604 11.6035 32.5472 11.7572 32.534 11.9111L32.534 11.9113C32.5248 12.0177 32.5157 12.1242 32.4888 12.2267C32.4266 12.331 32.3061 12.3375 32.1951 12.3435L32.1935 12.3436C32.1686 12.345 32.1443 12.3463 32.1212 12.3488C32.107 12.3333 32.09 12.3187 32.0731 12.3041L32.0729 12.3039C32.0215 12.2596 31.9691 12.2145 31.9846 12.1391C31.9567 11.987 32.0906 11.9182 32.2096 11.857L32.2096 11.857C32.2399 11.8414 32.2693 11.8263 32.2948 11.8104C32.2557 11.6454 32.2145 11.4809 32.1648 11.3186C31.9255 11.4061 31.6656 11.5215 31.5525 11.7664C31.3934 12.168 31.5959 12.7151 32.0354 12.8322C32.2881 12.8696 32.5887 12.8746 32.7817 12.6783C33.0455 12.4429 33.0667 12.0652 33.0784 11.7362L33.1537 11.6056C33.2329 11.623 33.3121 11.6447 33.3908 11.6687C33.3932 11.6922 33.3965 11.7157 33.3997 11.7392V11.7393V11.7393V11.7394V11.7396L33.3997 11.7396V11.7398V11.7399V11.7399L33.3998 11.7401L33.3998 11.7402C33.4074 11.7955 33.415 11.8508 33.413 11.9069C33.4134 12.0003 33.3357 12.0433 33.2601 12.0851C33.228 12.1029 33.1961 12.1205 33.171 12.1417C33.1737 12.1523 33.1764 12.1629 33.1791 12.1735C33.1818 12.1841 33.1845 12.1947 33.1872 12.2053L33.1891 12.2125C33.222 12.3407 33.255 12.4691 33.2908 12.5968C33.5362 12.4992 33.8056 12.3586 33.8781 12.0814C33.9851 11.676 33.7219 11.1271 33.2567 11.1205ZM33.2096 17.8445L33.2096 17.8445L33.2097 17.8444L33.2097 17.8443L33.2098 17.8443L33.2112 17.8432L33.2114 17.843C33.2782 17.787 33.3445 17.7315 33.4117 17.6795C33.9638 17.737 34.4888 17.998 34.8752 18.3951C35.2132 18.7721 35.4463 19.2663 35.4246 19.7811C35.4564 20.4649 35.095 21.1226 34.569 21.5424C33.6801 22.2725 32.2745 22.2876 31.3972 21.5297C30.8779 21.0962 30.5828 20.3991 30.6677 19.7248C30.7107 19.3149 30.8835 18.9272 31.1329 18.6015C31.4008 18.5487 31.667 18.4872 31.9332 18.4257L31.9333 18.4256L31.9344 18.4254L31.9346 18.4253L31.9498 18.4218L31.9499 18.4218L31.9499 18.4218L31.95 18.4218L31.95 18.4218L31.9501 18.4217L31.9502 18.4217L31.9502 18.4217L31.9503 18.4217C32.109 18.385 32.2677 18.3484 32.4268 18.3137C32.7332 18.2435 32.9744 18.0415 33.2096 17.8445ZM7.06287 18.9582C7.00604 18.9005 6.94915 18.8428 6.89187 18.7855C7.69496 21.7884 9.50984 24.4996 11.9539 26.4153C13.7984 27.8671 15.9992 28.8675 18.3105 29.2843C19.4839 29.4967 20.6831 29.5676 21.8733 29.4884C22.7423 29.431 23.6079 29.2998 24.4517 29.0796C27.9622 28.2144 31.0977 25.9612 33.0693 22.9343C32.9038 22.9416 32.7392 22.9594 32.5752 22.9784C30.6371 25.8174 27.6336 27.9144 24.2894 28.7237C21.9302 29.3105 19.4193 29.2659 17.0806 28.6038C15.0282 28.0283 13.1168 26.9697 11.5261 25.553C9.74075 23.9702 8.36765 21.9299 7.57226 19.6811C7.55748 19.6436 7.54526 19.6042 7.53305 19.5647L7.53295 19.5644C7.49957 19.4567 7.46586 19.348 7.37822 19.273C7.27255 19.1709 7.1694 19.0663 7.06627 18.9616L7.06616 18.9615L7.06293 18.9583L7.06287 18.9582ZM29.0519 18.9885C29.0721 18.9862 29.0926 18.9824 29.1131 18.9785L29.1132 18.9785C29.1647 18.9688 29.2171 18.959 29.2689 18.9718C29.7023 19.3243 30.0118 19.833 30.081 20.3918C30.2534 21.4839 29.4697 22.5765 28.4318 22.886C27.7312 23.1136 26.9265 23.0199 26.3146 22.6027C25.8349 22.2909 25.4796 21.7896 25.3653 21.2267C25.2319 20.6624 25.3636 20.0489 25.6787 19.5669C25.7088 19.5019 25.7767 19.4943 25.8409 19.487L25.8412 19.487C25.859 19.485 25.8766 19.483 25.8929 19.4799C26.9498 19.3421 28.0017 19.1693 29.0519 18.9885ZM14.4508 20.7845C14.6796 20.0733 15.2389 19.4531 15.9584 19.2234C16.0571 19.5295 16.2986 19.7755 16.6071 19.872C17.1093 20.0427 17.6394 20.0361 18.1663 20.0297H18.1665L18.1709 20.0296C18.3539 20.0274 18.5366 20.0252 18.7176 20.0305C19.0633 20.5407 19.2436 21.1834 19.1136 21.7952C18.9307 22.8806 17.9033 23.735 16.8062 23.7339C16.0081 23.7729 15.2078 23.373 14.7593 22.7116C14.3739 22.1564 14.2691 21.4331 14.4508 20.7845ZM20.4923 19.983C21.6641 19.93 22.836 19.8458 24.001 19.7041C24.4137 20.123 24.6786 20.6986 24.6547 21.2931C24.6486 21.9925 24.2637 22.659 23.696 23.0572C23.1617 23.4387 22.4651 23.5893 21.8219 23.4477C20.9882 23.2831 20.2781 22.62 20.0812 21.7889C20.0294 21.4169 20.0243 21.031 20.1364 20.669C20.2202 20.4236 20.3528 20.1998 20.4923 19.983ZM13.4423 20.3442C13.3693 20.3794 13.2968 20.4143 13.225 20.4504C12.9316 20.5664 12.6187 20.6104 12.3047 20.5976C12.5993 21.0292 12.9181 21.4437 13.2596 21.8391C13.2333 21.325 13.2891 20.8024 13.4871 20.3227L13.4735 20.3292L13.4475 20.3417L13.4423 20.3442ZM11.3481 21.8728V21.8728C11.5791 21.7138 11.8102 21.5549 12.0498 21.4091C12.1574 21.567 12.2634 21.7259 12.361 21.8905C12.1632 22.0193 11.9674 22.151 11.7718 22.2826L11.7671 22.2858L11.767 22.2859C11.5576 22.4267 11.3484 22.5675 11.1368 22.7048C10.9427 22.823 10.7279 22.9463 10.4915 22.9174C10.0715 22.9034 9.73573 22.4706 9.80042 22.0611C9.84672 21.8096 10.0257 21.5887 10.2589 21.4844C10.2984 21.5471 10.3406 21.6079 10.3828 21.6688L10.3857 21.6729L10.3865 21.6741L10.3866 21.6742C10.4397 21.7507 10.4927 21.8271 10.5406 21.9072C10.5205 21.9368 10.4949 21.9658 10.469 21.9952L10.4682 21.9961L10.4681 21.9962C10.3892 22.0855 10.3071 22.1785 10.3632 22.3033C10.453 22.4303 10.6109 22.3534 10.7168 22.2931C10.9313 22.1596 11.1397 22.0163 11.348 21.8729V21.8728H11.3481ZM11.9975 22.7505L11.979 22.7678C11.8045 22.9406 11.6234 23.1067 11.4423 23.2729L11.44 23.275L11.4399 23.2751L11.4398 23.2752L11.4398 23.2752L11.4397 23.2753L11.4397 23.2753V23.2754H11.4396V23.2754L11.4374 23.2775L11.4373 23.2775L11.4373 23.2776L11.4372 23.2776L11.4372 23.2777L11.4371 23.2777L11.4371 23.2777L11.4371 23.2778L11.437 23.2778C11.257 23.443 11.0769 23.6082 10.9032 23.78C10.9053 23.7959 10.9084 23.8239 10.9108 23.8451L10.9113 23.8495L10.9127 23.862C11.0147 23.9657 11.1174 24.0689 11.2261 24.166C11.3251 24.082 11.4196 23.9926 11.5141 23.9031L11.5156 23.9017L11.5157 23.9017C11.6494 23.7751 11.7832 23.6484 11.9299 23.5368C12.0554 23.6703 12.1787 23.8062 12.2947 23.9491C12.2434 23.9952 12.1911 24.0405 12.1386 24.086L12.1385 24.0861L12.1385 24.0861L12.1323 24.0915L12.1319 24.0918C11.9457 24.2529 11.7583 24.4152 11.6109 24.6117C11.6656 24.6679 11.7208 24.7236 11.776 24.7793L11.7761 24.7794L11.7761 24.7794L11.7762 24.7795L11.7763 24.7795L11.7763 24.7797L11.7764 24.7797L11.7765 24.7798L11.7766 24.7799L11.7767 24.78L11.7768 24.7801L11.7769 24.7802L11.7773 24.7807C11.8259 24.8296 11.8744 24.8786 11.9227 24.928C12.169 24.726 12.3998 24.5066 12.6305 24.2872H12.6306V24.2871L12.6306 24.2871L12.633 24.2847C12.7902 24.1353 12.9474 23.9859 13.1095 23.842C13.2908 23.6964 13.4397 23.4823 13.4191 23.2396C13.3555 22.8431 13.0264 22.4878 12.6232 22.4332C12.3674 22.4041 12.1704 22.5886 11.9975 22.7505ZM21.6507 24.3411C22.9256 24.505 24.2632 23.8017 24.8332 22.6456C25.1985 23.1398 25.7256 23.5067 26.3112 23.6908C26.3096 23.7026 26.3051 23.7265 26.3029 23.7382C24.3335 24.9519 21.9519 25.4829 19.6557 25.1889C18.7862 25.0796 17.9267 24.8644 17.1164 24.5286C18.0579 24.3406 18.885 23.6964 19.3217 22.8442C19.8041 23.6742 20.6965 24.2447 21.6507 24.3411ZM14.2529 23.6741C14.1556 23.6013 14.0584 23.5285 13.9573 23.4616C13.8035 23.829 13.6464 24.1949 13.4894 24.5607L13.4893 24.5609C13.3195 24.9564 13.1497 25.3519 12.984 25.7493C13.1067 25.8375 13.2283 25.9267 13.3488 26.0182C13.6238 25.7899 13.9015 25.5649 14.1792 25.34L14.1793 25.3399L14.1793 25.3398L14.1794 25.3397L14.1795 25.3397L14.1796 25.3396L14.1796 25.3396L14.1798 25.3394L14.1809 25.3386L14.1809 25.3385L14.181 25.3384L14.1811 25.3384C14.5473 25.0416 14.9135 24.7449 15.2735 24.4409C15.1463 24.3494 15.022 24.2546 14.9015 24.1548C14.7808 24.254 14.6593 24.3522 14.5377 24.4503H14.5376L14.5367 24.4511L14.5366 24.4511C14.291 24.6494 14.0456 24.8475 13.8078 25.0551C13.8145 25.0193 13.8279 24.9473 13.834 24.9112C13.9638 24.6356 14.0819 24.3546 14.1999 24.0737L14.2003 24.0729L14.2004 24.0726L14.2005 24.0722L14.2007 24.0719C14.2472 23.9611 14.2938 23.8504 14.341 23.7399C14.3293 23.7312 14.3176 23.7225 14.306 23.7138C14.289 23.7012 14.272 23.6885 14.2551 23.6758L14.2529 23.6741ZM25.5989 25.0964C25.9686 24.8897 26.3294 24.6681 26.6901 24.4465C26.7637 24.4013 26.8372 24.3561 26.9108 24.3111C27.0005 24.4505 27.0864 24.5928 27.1634 24.7404C27.1153 24.7697 27.0664 24.7978 27.0175 24.8258H27.0174C26.923 24.8798 26.8286 24.9339 26.7401 24.9971C26.7516 25.0654 26.7869 25.1253 26.822 25.1848L26.8222 25.1852L26.8252 25.1903L26.8294 25.1973C26.9155 25.3405 27.0025 25.4832 27.0894 25.6259L27.0972 25.6387L27.0973 25.6389L27.0977 25.6396C27.2931 25.9601 27.4885 26.2808 27.6754 26.6068L27.6791 26.6093L27.6871 26.6148L27.7 26.6237L27.7134 26.6329C27.7187 26.6365 27.7236 26.6399 27.7274 26.6426C27.5855 26.7251 27.4464 26.8123 27.3102 26.904C27.0997 26.6082 26.9157 26.2948 26.7317 25.9814L26.7314 25.9808C26.5895 25.7392 26.4476 25.4976 26.2935 25.2638C26.2886 25.2667 26.2836 25.2696 26.2786 25.2725C26.2724 25.2762 26.2662 25.2798 26.26 25.2835C26.2535 25.2873 26.247 25.2911 26.2405 25.295L26.2324 25.2998C26.2176 25.3086 26.2029 25.3173 26.1882 25.3261L26.1658 25.3395L26.1654 25.3397L26.1651 25.3399H26.165L26.1639 25.3406C26.0568 25.4045 25.9498 25.4684 25.8384 25.5249L25.8201 25.492C25.8122 25.478 25.8044 25.464 25.7966 25.45C25.7796 25.4197 25.7626 25.3894 25.7456 25.3591L25.7443 25.357L25.7422 25.3532C25.6941 25.2675 25.6462 25.182 25.5989 25.0964ZM16.7242 25.4672C16.6121 25.0009 16.0594 24.7154 15.6087 24.8481C15.4214 24.9067 15.3064 25.0751 15.23 25.2457C15.1191 25.4736 15.0023 25.6984 14.8854 25.9231V25.9232L14.8854 25.9233L14.8853 25.9234V25.9234C14.8043 26.0792 14.7234 26.235 14.6444 26.3919C14.5842 26.5028 14.5273 26.6189 14.5167 26.7471L14.5248 26.751L14.5388 26.7576L14.5514 26.7637L14.5707 26.7729L14.5709 26.773L14.5806 26.7776C14.7009 26.8354 14.8219 26.8935 14.9511 26.9295C15.0204 26.7775 15.0977 26.6295 15.1751 26.4816V26.4815L15.1751 26.4815C15.2393 26.3588 15.3034 26.2362 15.3628 26.1113C15.4911 26.152 15.6096 26.2162 15.7278 26.2803H15.7279L15.7281 26.2804C15.7731 26.3048 15.8181 26.3292 15.8636 26.3523C15.8055 26.4684 15.7468 26.5842 15.6881 26.7H15.688L15.6826 26.7106L15.6824 26.7111C15.5998 26.8741 15.5171 27.037 15.4364 27.2011C15.5758 27.2777 15.7169 27.3518 15.863 27.416C15.9405 27.2644 16.0188 27.1135 16.0972 26.9625L16.0972 26.9624L16.0973 26.9623L16.0974 26.9621L16.0975 26.962L16.0975 26.9618L16.0976 26.9616C16.2392 26.6889 16.3807 26.4163 16.5167 26.1404C16.5342 26.1048 16.553 26.0689 16.572 26.0328V26.0328C16.6651 25.8559 16.7617 25.6719 16.7242 25.4672ZM24.2422 25.5694H24.2423L24.2425 25.5693C24.5196 25.4498 24.8002 25.3287 25.0965 25.4388C25.5024 25.5554 25.7334 26.0668 25.5398 26.4455C25.4172 26.6926 25.1723 26.8421 24.9202 26.9302C24.9536 27.0191 24.9881 27.1077 25.0226 27.1962L25.0239 27.1997C25.097 27.3878 25.1702 27.576 25.2337 27.7679C25.1773 27.7927 25.1204 27.8163 25.0636 27.8398L25.061 27.8409C24.9817 27.8738 24.9027 27.9067 24.8248 27.9425L24.81 27.943L24.8023 27.9432L24.8018 27.9433C24.776 27.9442 24.7503 27.9451 24.725 27.9464C24.5959 27.6175 24.4703 27.2874 24.3448 26.9571L24.3445 26.9562L24.3444 26.9561L24.3444 26.956L24.3443 26.9559C24.2531 26.7159 24.1618 26.4759 24.0691 26.2364C24.0541 26.1976 24.0383 26.159 24.0225 26.1204L24.0213 26.1174C23.966 25.9828 23.9107 25.848 23.89 25.7032C24.0074 25.6708 24.1245 25.6202 24.2422 25.5694ZM18.2469 25.6981C18.0175 25.5477 17.7231 25.4912 17.4582 25.5699C17.1219 25.7193 16.988 26.1676 17.1246 26.4953C17.2061 26.6373 17.3361 26.7303 17.4663 26.8234C17.5776 26.903 17.689 26.9828 17.7705 27.0933C17.7872 27.2214 17.7064 27.3332 17.6341 27.4332L17.6274 27.4425C17.6249 27.446 17.6224 27.4495 17.6199 27.453C17.6056 27.453 17.5878 27.453 17.5682 27.4529L17.5464 27.4528L17.5058 27.4527H17.5052H17.5049C17.4615 27.4525 17.418 27.4523 17.389 27.4523C17.2912 27.3496 17.2863 27.2155 17.2815 27.0833V27.0833C17.2804 27.0548 17.2794 27.0263 17.2774 26.9983C17.1201 26.9392 16.9562 26.9024 16.7927 26.8673C16.7576 27.102 16.7186 27.3648 16.8507 27.5777C16.9746 27.7975 17.2312 27.8785 17.4604 27.9358C17.5246 27.9358 17.5887 27.9365 17.654 27.938C18.0975 27.8532 18.4053 27.3496 18.2636 26.9196C18.1725 26.6814 17.9737 26.5356 17.7763 26.3909L17.7754 26.3902C17.6963 26.3322 17.6174 26.2743 17.5458 26.2107C17.5726 26.142 17.6 26.0735 17.6278 26.006C17.6497 26.0075 17.6721 26.0076 17.6947 26.0077C17.766 26.008 17.8388 26.0082 17.8995 26.0523C18.0034 26.1021 18.0092 26.2176 18.0145 26.3228V26.3228C18.0159 26.3508 18.0173 26.378 18.0205 26.4031C18.1622 26.4511 18.3066 26.4918 18.4521 26.5292C18.5413 26.2442 18.4934 25.8906 18.2469 25.6981ZM22.9792 25.8554L23.0156 25.8477L23.017 25.8474C23.1812 25.8127 23.3456 25.7779 23.5119 25.7545C23.5862 26.114 23.6554 26.4746 23.7245 26.8352L23.7266 26.8461V26.8462V26.8464C23.8075 27.2686 23.8884 27.6908 23.9776 28.1115C23.8321 28.1461 23.686 28.1773 23.5381 28.2007L23.5348 28.2028L23.5341 28.2033C23.5312 28.2051 23.5279 28.2071 23.5244 28.2092L23.5243 28.2094C23.5054 28.2211 23.4801 28.2368 23.4662 28.246C23.4123 28.1001 23.3837 27.9477 23.3551 27.7957L23.3551 27.7956V27.7955C23.3453 27.7431 23.3354 27.6906 23.3245 27.6385C23.2837 27.4276 23.2426 27.2168 23.2015 27.0061L23.201 27.0037L23.2009 27.0029C23.1263 26.6206 23.0518 26.2384 22.9792 25.8554ZM20.3495 26.1694C20.0199 25.8197 19.364 25.8755 19.1052 26.2799C19.0286 26.4654 19.0023 26.6646 18.976 26.8639C18.9611 26.9766 18.9462 27.0894 18.9222 27.1997C18.8697 27.478 18.8196 27.8088 19.0281 28.038C19.2869 28.3832 19.8033 28.4133 20.162 28.2192C20.3923 28.096 20.4743 27.8189 20.4748 27.574C20.3931 27.5651 20.3117 27.5542 20.2304 27.5434L20.2297 27.5433C20.148 27.5324 20.0663 27.5215 19.9846 27.5126C19.9587 27.5745 19.9326 27.6364 19.9064 27.6985L19.9061 27.6993L19.9052 27.7014C19.8962 27.7228 19.8871 27.7443 19.8781 27.7658C19.7492 27.8277 19.6075 27.8444 19.4804 27.7697C19.4734 27.7592 19.4637 27.7451 19.4533 27.7298C19.449 27.7235 19.4446 27.7171 19.4401 27.7106C19.4238 27.6869 19.4074 27.6628 19.3968 27.647C19.3953 27.4933 19.4185 27.3423 19.4417 27.1914C19.4548 27.1063 19.4679 27.0213 19.4765 26.9359C19.4846 26.8984 19.489 26.8583 19.4934 26.8178L19.4934 26.8177C19.5061 26.7016 19.5192 26.5822 19.6204 26.5103C19.7744 26.4394 19.9417 26.5081 20.0504 26.6263C20.0501 26.6926 20.0514 26.7597 20.0528 26.8269L20.0529 26.8332C20.0532 26.8492 20.0535 26.8652 20.0538 26.8812C20.2184 26.8979 20.384 26.9135 20.5497 26.9074C20.5519 26.7801 20.5525 26.6534 20.5531 26.5272V26.527L20.5531 26.5261V26.5259C20.5431 26.5041 20.5335 26.4819 20.5238 26.4597L20.5238 26.4596L20.5235 26.459C20.4781 26.3548 20.4322 26.2492 20.3495 26.1694ZM20.939 26.0517C21.2519 26.0077 21.5681 25.9854 21.8843 25.9854C22.0456 25.9798 22.1911 26.0568 22.33 26.1304C22.5581 26.4099 22.5999 26.8215 22.4276 27.1394C22.3988 27.1967 22.3578 27.2455 22.3168 27.2943C22.2784 27.34 22.2401 27.3857 22.2117 27.4383C22.2896 27.621 22.3916 27.7918 22.4938 27.963C22.5651 28.0824 22.6364 28.2019 22.6997 28.3256C22.5688 28.3277 22.4385 28.3372 22.3083 28.3468L22.3069 28.3469C22.2595 28.3504 22.2122 28.3538 22.1649 28.3569C22.0868 28.2399 22.015 28.1188 21.9432 27.9978L21.9424 27.9964C21.8308 27.8083 21.7194 27.6203 21.5848 27.4478C21.5863 27.6132 21.6018 27.7776 21.6174 27.9422L21.6174 27.9426C21.6318 28.0954 21.6463 28.2482 21.6495 28.4021C21.596 28.4067 21.5427 28.4122 21.4893 28.4177L21.4804 28.4186C21.3682 28.4302 21.256 28.4418 21.1431 28.4456C21.1321 28.3573 21.1254 28.2686 21.1186 28.18L21.1186 28.1798L21.1183 28.1757C21.112 28.0943 21.1058 28.0129 21.0963 27.9319C21.0669 27.5734 21.0346 27.2149 21.0023 26.8565C20.9977 26.8057 20.9931 26.7549 20.9886 26.7041L20.9886 26.7037C20.9694 26.5374 20.9591 26.3707 20.9487 26.2039L20.9485 26.2009C20.9454 26.1512 20.9423 26.1014 20.939 26.0517ZM24.884 10.666C24.7183 10.6269 24.5459 10.6425 24.3865 10.6983C23.8187 10.8872 23.3022 11.194 22.79 11.4984C22.7441 11.5256 22.6982 11.5529 22.6524 11.58C22.5471 11.8566 22.4466 12.1377 22.4048 12.4328C23.1137 12.145 23.8137 11.8093 24.4149 11.3297C24.4524 11.2935 24.4935 11.2577 24.5353 11.2213C24.7085 11.0706 24.8942 10.909 24.884 10.666ZM22.4477 11.096C22.5459 11.0262 22.6432 10.9544 22.7407 10.8825C23.1094 10.6106 23.4806 10.3368 23.9062 10.1634C23.7846 10.3012 23.6474 10.4234 23.5024 10.5343C22.9491 10.9627 22.3881 11.3804 21.8136 11.7797C21.9041 11.5437 22.102 11.3819 22.2951 11.224C22.3471 11.1815 22.3987 11.1393 22.4477 11.096ZM23.8693 9.45171C23.2352 9.65032 22.5905 9.87342 22.0785 10.314C22.0768 10.3882 22.0762 10.4613 22.0773 10.536C22.3485 10.4189 22.6173 10.2959 22.886 10.1728C23.306 9.98052 23.7259 9.78822 24.1555 9.61853L24.1452 9.61369C24.065 9.57576 23.9856 9.53819 23.915 9.48523L23.8693 9.45171Z" fill="black"/>
</svg>
