<svg width="15" height="18" viewBox="0 0 15 18" fill="none" xmlns="http://www.w3.org/2000/svg">
<path d="M14.3717 4.50805C14.3524 4.10472 14.0199 3.78769 13.6161 3.78769H11.2726V1.76524C11.2726 0.791946 10.4806 0 9.50735 0H5.47258C4.49933 0 3.70734 0.791901 3.70734 1.76524V3.78769H1.36378C0.960045 3.78769 0.627442 4.10472 0.60824 4.50805L0.000866855 17.2074C-0.00902907 17.4141 0.0661436 17.6157 0.208908 17.7655C0.351627 17.9153 0.549636 18 0.756498 18H14.2236C14.4305 18 14.6284 17.9153 14.7712 17.7655C14.914 17.6157 14.9891 17.4141 14.9792 17.2074L14.3717 4.50805ZM5.22051 1.76524C5.22051 1.62624 5.33359 1.51303 5.47263 1.51303H9.5074C9.64639 1.51303 9.75951 1.6262 9.75951 1.76524V3.78769H5.22056L5.22051 1.76524ZM10.9618 9.21456L6.85951 13.2891C6.81775 13.3305 6.76623 13.3566 6.7123 13.3671C6.62741 13.3834 6.5364 13.3613 6.46726 13.2999L4.57433 11.6158C4.45607 11.5107 4.4455 11.3296 4.55058 11.2114L5.31212 10.3554C5.36269 10.2987 5.43336 10.2643 5.50944 10.2599C5.58543 10.2554 5.65988 10.2814 5.71658 10.3319L6.60372 11.1211L9.75075 7.9955C9.86297 7.88405 10.0443 7.88464 10.1559 7.99681L10.9632 8.80978C11.0168 8.8637 11.0467 8.93665 11.0464 9.0126C11.0463 9.08822 11.0158 9.16108 10.9618 9.21456Z" fill="#E2E8EB"/>
</svg>
