<svg width="50" height="40" viewBox="0 0 50 40" fill="none" xmlns="http://www.w3.org/2000/svg">
<path d="M2.66525 0.0135229C1.8363 0.154924 1.09398 0.641604 0.601609 1.3665C0.109236 2.0914 -0.0928647 2.99513 0.0397679 3.87888C0.172401 4.76264 0.628902 5.55403 1.30885 6.07895C1.98879 6.60388 2.83648 6.81934 3.66544 6.67794H13.0422L13.6048 8.34404L16.1677 16.6746L18.7307 25.0051C18.9808 25.8714 20.0435 26.6712 20.8561 26.6712H42.7351C43.6103 26.6712 44.6105 25.8714 44.8605 25.0051L49.924 8.34404C50.174 7.47767 49.7989 6.67794 48.9238 6.67794H21.1687L18.7932 1.87956C18.5402 1.32881 18.1496 0.863173 17.6643 0.533931C17.179 0.204688 16.6178 0.0246092 16.0427 0.0135229L3.54041 0.0135229C3.35326 -0.00450762 3.16496 -0.00450763 2.97781 0.0135229C2.8529 0.00551837 2.72765 0.00551837 2.60274 0.0135229L2.66525 0.0135229ZM22.4189 33.3356C20.6686 33.3356 19.2933 34.8018 19.2933 36.6678C19.2933 38.5338 20.6686 40 22.4189 40C24.1692 40 25.5445 38.5338 25.5445 36.6678C25.5445 34.8018 24.1692 33.3356 22.4189 33.3356ZM41.1723 33.3356C39.422 33.3356 38.0468 34.8018 38.0468 36.6678C38.0468 38.5338 39.422 40 41.1723 40C42.9227 40 44.2979 38.5338 44.2979 36.6678C44.2979 34.8018 42.9227 33.3356 41.1723 33.3356Z" fill="#CBCCD9"/>
</svg>
