<svg width="40" height="40" viewBox="0 0 40 40" fill="none" xmlns="http://www.w3.org/2000/svg">
<path d="M40 20.5009C40 24.9677 38.7283 28.9851 36.1849 32.5532C33.6415 36.1213 30.3559 38.5905 26.3281 39.9607C25.8594 40.0497 25.5165 39.9874 25.2995 39.7739C25.0825 39.5603 24.974 39.2934 24.974 38.9731V33.3407C24.974 31.6145 24.5226 30.3509 23.6198 29.5501C24.6094 29.4434 25.4991 29.2832 26.2891 29.0696C27.079 28.8561 27.895 28.5091 28.737 28.0286C29.579 27.5481 30.2821 26.9564 30.8464 26.2534C31.4106 25.5505 31.8707 24.6162 32.2266 23.4506C32.5825 22.2849 32.7604 20.9458 32.7604 19.4331C32.7604 17.2798 32.0747 15.4469 30.7031 13.9342C31.3455 12.3148 31.276 10.4996 30.4948 8.48866C30.0087 8.32849 29.3056 8.42637 28.3854 8.78229C27.4653 9.13821 26.6667 9.52972 25.9896 9.95682L25 10.5975C23.3854 10.1348 21.7188 9.90343 20 9.90343C18.2812 9.90343 16.6146 10.1348 15 10.5975C14.7222 10.4017 14.3533 10.1615 13.8932 9.87674C13.4332 9.592 12.7083 9.24943 11.7188 8.84902C10.7292 8.44861 9.98264 8.32849 9.47917 8.48866C8.71528 10.4996 8.65451 12.3148 9.29688 13.9342C7.92535 15.4469 7.23958 17.2798 7.23958 19.4331C7.23958 20.9458 7.41753 22.2805 7.77344 23.4372C8.12934 24.594 8.58507 25.5282 9.14062 26.2401C9.69618 26.9519 10.395 27.5481 11.237 28.0286C12.079 28.5091 12.895 28.8561 13.6849 29.0696C14.4748 29.2832 15.3646 29.4434 16.3542 29.5501C15.6597 30.1908 15.2344 31.1073 15.0781 32.2996C14.7135 32.4776 14.3229 32.611 13.9062 32.7C13.4896 32.789 12.9948 32.8335 12.4219 32.8335C11.849 32.8335 11.2804 32.6422 10.7161 32.2596C10.1519 31.8769 9.67014 31.3208 9.27083 30.5912C8.94097 30.0217 8.51997 29.559 8.00781 29.2031C7.49566 28.8472 7.06597 28.6336 6.71875 28.5625L6.19792 28.4824C5.83333 28.4824 5.5816 28.5224 5.44271 28.6025C5.30382 28.6826 5.26042 28.7849 5.3125 28.9095C5.36458 29.034 5.44271 29.1586 5.54688 29.2832C5.65104 29.4078 5.76389 29.5145 5.88542 29.6035L6.06771 29.737C6.44965 29.9149 6.82726 30.2531 7.20052 30.7514C7.57378 31.2496 7.84722 31.7034 8.02083 32.1127L8.28125 32.7267C8.50694 33.403 8.88889 33.9502 9.42708 34.3684C9.96528 34.7866 10.5469 35.0535 11.1719 35.1692C11.7969 35.2849 12.4002 35.3471 12.9818 35.356C13.5634 35.3649 14.0451 35.3338 14.4271 35.2626L15.026 35.1558C15.026 35.8321 15.0304 36.624 15.0391 37.5316C15.0477 38.4392 15.0521 38.9197 15.0521 38.9731C15.0521 39.2934 14.9392 39.5603 14.7135 39.7739C14.4878 39.9874 14.1406 40.0497 13.6719 39.9607C9.6441 38.5905 6.35851 36.1213 3.8151 32.5532C1.2717 28.9851 0 24.9677 0 20.5009C0 16.7816 0.894097 13.3514 2.68229 10.2104C4.47049 7.06943 6.8967 4.58245 9.96094 2.74947C13.0252 0.91649 16.3715 0 20 0C23.6285 0 26.9748 0.91649 30.0391 2.74947C33.1033 4.58245 35.5295 7.06943 37.3177 10.2104C39.1059 13.3514 40 16.7816 40 20.5009Z" fill="black"/>
</svg>
