<svg width="12" height="12" viewBox="0 0 12 12" fill="none" xmlns="http://www.w3.org/2000/svg">
<path d="M10.2197 11.3575C9.82915 11.748 9.19598 11.748 8.80546 11.3575L1.02729 3.57932C0.636761 3.18879 0.636761 2.55563 1.02729 2.1651L2.17145 1.02094C2.56197 0.630416 3.19514 0.630416 3.58566 1.02094L11.3638 8.79911C11.7544 9.18964 11.7544 9.8228 11.3638 10.2133L10.2197 11.3575ZM3.58566 11.3638C3.19514 11.7544 2.56197 11.7544 2.17145 11.3638L1.02728 10.2197C0.636761 9.82915 0.636761 9.19599 1.02729 8.80546L8.80546 1.02729C9.19598 0.636763 9.82915 0.636763 10.2197 1.02729L11.3638 2.17145C11.7544 2.56198 11.7544 3.19514 11.3638 3.58567L3.58566 11.3638Z" fill="#CBCCD9"/>
</svg>
