<svg width="28" height="31" viewBox="0 0 28 31" fill="none" xmlns="http://www.w3.org/2000/svg">
<path fill-rule="evenodd" clip-rule="evenodd" d="M19.9056 0.238358C10.1296 -1.64365 -6.47742 15.1538 4.05791 25.7186C10.9338 32.6137 20.8753 30.6546 25.1289 24.7124C29.3826 18.7703 29.4387 2.07362 19.9056 0.238358ZM16.9739 13.5206C16.3467 12.6971 16.076 9.27582 16.9739 7.38925C15.627 6.91761 15.627 6.91761 14.2801 7.38925C15.1781 9.27582 14.9073 12.6971 14.2801 13.5206C13.0903 15.0831 12.0354 15.8788 12.0354 17.2937C12.0354 18.237 12.4843 19.6521 13.3822 20.5952V21.0668H17.8718V20.5952C18.7697 19.6519 19.2186 18.237 19.2186 17.2937C19.2186 15.8788 18.1638 15.0831 16.9739 13.5206Z" fill="#080A33"/>
</svg>
