<svg width="20" height="20" viewBox="0 0 20 20" fill="none" xmlns="http://www.w3.org/2000/svg">
<path d="M16 0H4C1.79106 0 0 1.79106 0 4V16C0 18.2089 1.79106 20 4 20H16C18.2089 20 20 18.2089 20 16V4C20 1.79106 18.2089 0 16 0ZM16.2311 8.14426L10.0434 14.3311C9.7017 14.6736 9.25447 14.8438 8.80681 14.8438C8.35957 14.8438 7.91149 14.6736 7.56979 14.3311L3.76851 10.5302C3.08596 9.84766 3.08596 8.73957 3.76851 8.05617C4.45234 7.37277 5.55957 7.37277 6.2434 8.05617L8.80638 10.6191L13.7566 5.66894C14.4396 4.98596 15.5477 4.98596 16.2306 5.66894C16.9149 6.35234 16.9149 7.46043 16.2311 8.14426Z" fill="#FC5439"/>
</svg>
