<svg width="30" height="40" viewBox="0 0 30 40" fill="none" xmlns="http://www.w3.org/2000/svg">
<path d="M7.14242 1.97027C3.84093 3.93205 1.47909 7.1002 0.492487 10.8904C-0.494325 14.6805 0.0122984 18.6395 1.91826 22.0377C4.46046 26.5696 9.20062 29.385 14.2895 29.385C15.8962 29.385 17.4905 29.1003 19.0019 28.554L25.4222 40L30 37.2795L23.5808 25.8355C25.7491 23.926 27.3102 21.3933 28.0649 18.4946C29.0515 14.7044 28.5448 10.7456 26.6389 7.34722C24.0969 2.81536 19.3565 0 14.2679 0C11.7754 0 9.31142 0.681205 7.14242 1.97027ZM22.0611 10.0677C23.2613 12.2073 23.5801 14.7001 22.9589 17.0865C22.3377 19.4729 20.8506 21.4675 18.7719 22.7028C17.4055 23.5148 15.8554 23.944 14.2895 23.944C11.0833 23.944 8.09709 22.1711 6.49625 19.3173C5.29609 17.1777 4.97722 14.6851 5.59866 12.2985C6.21988 9.91207 7.70697 7.91743 9.78569 6.6819C11.1518 5.87011 12.7019 5.44093 14.2679 5.44093C17.4742 5.44093 20.4603 7.21381 22.0611 10.0677Z" fill="#CBCCD9"/>
</svg>
