<svg width="15" height="15" viewBox="0 0 15 15" fill="none" xmlns="http://www.w3.org/2000/svg">
<path d="M7.5 0C3.3645 0 0 3.3645 0 7.5C0 11.6355 3.3645 15 7.5 15C11.6355 15 15 11.6355 15 7.5C15 3.3645 11.6355 0 7.5 0ZM11.6185 9.34573C11.4854 9.47886 11.3109 9.54545 11.1364 9.54545C10.9619 9.54545 10.7874 9.47891 10.6543 9.34573L7.49991 6.1915L4.34573 9.34573C4.0795 9.612 3.64777 9.612 3.3815 9.34573C3.11523 9.0795 3.11523 8.64777 3.3815 8.3815L7.01777 4.74514C7.14564 4.61727 7.31905 4.54541 7.49986 4.54541C7.68073 4.54541 7.85409 4.61723 7.982 4.74514L11.6185 8.3815C11.8848 8.64777 11.8848 9.0795 11.6185 9.34573Z" fill="black"/>
</svg>
