<svg width="16" height="16" viewBox="0 0 16 16" fill="none" xmlns="http://www.w3.org/2000/svg">
<path d="M7.10579 0.963914C7.40777 -0.00652644 8.72261 -0.00652594 9.02458 0.963915L10.1035 4.43125C10.2386 4.86525 10.6259 5.15908 11.0629 5.15908H14.5545C15.5317 5.15908 15.938 6.4648 15.1474 7.06457L12.3227 9.2075C11.9691 9.47572 11.8212 9.95116 11.9562 10.3852L13.0352 13.8525C13.3372 14.8229 12.2734 15.6299 11.4829 15.0301L8.65813 12.8872C8.30456 12.619 7.82581 12.619 7.47225 12.8872L4.64752 15.0301C3.85693 15.6299 2.79321 14.8229 3.09518 13.8525L4.17413 10.3852C4.30918 9.95116 4.16124 9.47572 3.80767 9.2075L0.982949 7.06457C0.192362 6.4648 0.59867 5.15908 1.57589 5.15908H5.06744C5.50447 5.15908 5.89179 4.86525 6.02684 4.43125L7.10579 0.963914Z" fill="#F3BA25"/>
</svg>
